<svg width="934" height="242" viewBox="0 0 934 242" fill="none" xmlns="http://www.w3.org/2000/svg">
<path fill-rule="evenodd" clip-rule="evenodd" d="M881.48 0.00933838H933.335V20.7493H881.48V0.00933838ZM933.335 51.864V241.984H881.48V51.864H933.335Z" fill="#16F4D0"/>
<path fill-rule="evenodd" clip-rule="evenodd" d="M324.933 0.00933838H390.611V20.7493C252.344 20.7493 159.011 38.036 27.6507 96.796C165.917 62.228 252.344 51.8587 390.611 51.8587V241.979H324.933C259.256 241.979 0 186.672 0 120.989C0 55.312 259.267 0 324.933 0V0.00933838ZM418.267 0.00933838H712.093V20.7493H418.267V0.00933838ZM712.093 51.864V241.984H418.267V51.864H712.093ZM739.749 0.00933838H850.369V20.7493H739.749V0.00933838ZM850.369 51.864V241.984H739.749V51.864H850.369Z" fill="#16F4D0"/>
</svg>
