<svg width="730" height="417" viewBox="0 0 730 417" fill="none" xmlns="http://www.w3.org/2000/svg">
<path d="M691.34 315.283C683.35 315.283 676.632 315.059 671.329 314.684C664.683 314.163 658.188 311.772 652.96 309.085C656.616 309.46 660.949 309.829 665.949 310.053C667.59 310.126 669.46 310.204 671.324 310.204C689.392 310.204 711.048 306.621 711.944 306.47L729.715 303.486L711.944 300.277C711.72 300.204 686.928 295.647 666.693 282.657C654.298 274.741 652.953 267.351 653.032 264.365C654.001 258.318 654.527 252.194 654.527 246.22C654.527 205.231 631.382 165.731 589.194 134.293C607.412 94.5694 632.798 7.65741 624.959 2.58007C600.99 -13.1026 523.86 46.1107 494.964 88.2987C465.548 79.2623 433.662 73.3667 400.511 70.8254C388.714 69.9296 376.694 69.4817 364.818 69.4817C352.646 69.4817 340.402 69.9296 328.38 70.8983C295.526 73.4347 263.943 79.3358 234.75 88.2943C205.854 46.1063 128.796 -13.0283 104.828 2.65433C96.9897 7.8054 122.375 94.5717 140.522 134.368C98.2616 165.878 75.1149 205.3 75.1149 246.368C75.1149 252.493 75.6358 258.836 76.6827 265.034C76.5316 268.618 74.516 275.415 63.0213 282.732C42.86 295.648 18.0733 300.278 17.7707 300.352L0 303.56L17.7707 306.544C18.6665 306.695 40.3173 310.279 58.3907 310.279C60.2552 310.279 62.1251 310.206 63.7656 310.128C68.7708 309.904 73.0989 309.529 76.7552 309.159C71.526 311.846 65.0312 314.237 58.3859 314.758C53.0837 315.206 46.3651 315.357 38.3752 315.357C26.3544 315.357 15.6045 314.836 15.5259 314.836L5.07279 314.388L13.5103 320.586C14.1821 321.107 30.2343 332.758 44.3489 333.95C42.1823 334.023 39.4948 334.023 36.3593 334.023C30.9844 334.023 26.1301 333.95 26.0572 333.95L16.276 333.726L24.2656 339.627C24.4166 339.778 28.224 342.539 33.8229 345.304C42.3333 349.559 50.2496 351.502 57.0416 351.054C57.3385 351.054 57.6406 350.981 58.0103 350.981L26.1303 355.835L32.7033 360.388C33.3022 360.763 46.6673 369.945 59.8073 370.018H60.1042C61.4479 370.018 62.7916 369.945 64.1354 369.867C60.9271 371.138 57.8646 372.179 55.6979 372.705C45.9896 374.872 35.0886 375.32 35.0152 375.32L22.6194 375.841L33.7444 381.367C34.1923 381.591 44.4215 386.518 67.5671 387.565C72.4942 387.788 83.1711 388.085 98.0311 388.611C152.687 390.33 254.458 393.465 290.818 398.242C291.641 398.393 295.745 399.736 300 401.153C316.651 406.606 347.563 416.757 364.959 416.757C382.355 416.757 413.344 406.601 429.917 401.153C434.245 399.736 438.355 398.393 439.178 398.242C475.615 393.46 577.391 390.325 632.044 388.611C646.904 388.163 657.58 387.788 662.508 387.565C685.654 386.518 695.883 381.518 696.331 381.367L707.456 375.841L695.06 375.393C694.987 375.393 684.086 374.945 674.378 372.778C672.138 372.257 669.148 371.21 665.94 369.94C667.284 370.013 668.628 370.091 669.971 370.091H670.268C683.409 370.018 696.774 360.83 697.372 360.46L703.945 355.908L672.065 351.054C672.362 351.054 672.664 351.127 673.034 351.127C673.633 351.2 674.305 351.2 674.977 351.2C681.471 351.2 688.717 349.184 696.482 345.299C702.008 342.539 705.664 339.846 705.888 339.7L713.878 333.799L703.945 333.95C703.873 333.95 699.018 334.023 693.643 334.023C690.508 334.023 687.893 334.023 685.654 333.95C699.842 332.757 715.82 321.106 716.492 320.586L724.93 314.388L714.477 314.836C714.107 314.836 703.357 315.284 691.337 315.284L691.34 315.283ZM605.173 19.6826C610.548 23.193 593.449 87.7759 580.533 118.917C582.325 109.657 582.924 100.923 587.627 87.4066C578.965 101.068 578.892 99.5003 569.257 112.568C577.544 95.7653 575.528 94.7239 583.82 77.9226C573.518 93.5266 567.913 97.7826 556.492 112.72C565.378 96.2199 574.263 79.7932 583.148 63.2932C572.32 78.5279 560.897 93.4599 548.877 107.944C556.867 93.9079 573.071 67.3239 581.132 53.2879C573.293 63.6682 557.091 86.3666 548.804 96.4439C555.971 84.647 570.533 60.6786 577.7 48.8813C567.622 61.5739 549.773 86.2146 539.023 98.3866C548.877 82.4799 558.809 66.6519 568.815 50.8239C556.867 65.3079 544.549 79.4959 531.705 93.3079C542.158 77.7772 547.085 70.3866 557.617 54.9279C545.149 69.0426 537.831 74.6413 524.467 88.0786C533.8 74.865 537.31 69.8599 546.789 56.7919C533.873 70.7559 523.94 79.5626 511.847 90.6146C531.555 60.5986 587.929 8.41192 605.175 19.6826H605.173ZM461.146 206.803C471.672 206.803 480.188 217.032 480.188 229.652C480.188 242.272 471.677 252.501 461.146 252.501C450.62 252.501 442.105 242.272 442.105 229.652C442.105 217.032 450.621 206.803 461.146 206.803ZM268.653 206.803C279.179 206.803 287.694 217.032 287.694 229.652C287.694 242.272 279.184 252.501 268.653 252.501C258.127 252.501 249.612 242.272 249.612 229.652C249.539 217.032 258.127 206.803 268.653 206.803ZM124.626 19.6826C141.877 8.40658 198.246 60.6719 218.033 90.6146C205.939 79.5624 196.08 70.7546 183.09 56.7919C192.575 69.8597 196.08 74.8599 205.413 88.0786C192.049 74.6413 184.73 69.0372 172.262 54.9279C182.866 70.3866 187.793 77.6986 198.174 93.3079C185.331 79.4959 172.934 65.3079 161.065 50.8239C171.07 66.6519 181.002 82.4799 190.857 98.3866C180.029 86.2147 162.185 61.5746 152.18 48.8813C159.346 60.6782 173.909 84.6466 181.076 96.4439C172.789 86.3658 156.586 63.6626 148.748 53.2879C156.81 67.3239 172.941 93.9079 181.002 107.944C168.981 93.4599 157.554 78.5279 146.732 63.2932C155.617 79.7932 164.429 96.2986 173.388 112.72C161.888 97.7879 156.289 93.5319 146.06 77.9226C154.346 94.7252 152.257 95.7666 160.622 112.568C150.992 99.5002 150.914 101.068 142.253 87.4066C146.956 100.923 147.628 109.657 149.347 118.917C136.352 87.7813 119.253 23.1932 124.628 19.6826H124.626ZM685.813 359.496C681.334 361.584 675.584 363.6 670.058 363.678H669.761C658.116 363.678 640.792 365.397 640.792 365.397C641.688 365.845 663.043 376.673 672.751 378.834C674.246 379.131 675.735 379.433 677.23 379.73C673.048 380.402 667.969 380.923 661.995 381.225C657.141 381.449 646.465 381.746 631.683 382.272C576.877 383.991 474.963 387.126 438.217 391.902C437.024 392.053 434.336 392.949 427.836 395.038C412.68 399.965 381.17 410.344 364.815 410.344C348.46 410.344 316.955 400.042 301.794 395.038C295.372 392.949 292.684 392.053 291.492 391.902C254.757 387.121 152.838 383.913 98.0248 382.272C83.2382 381.824 72.5609 381.449 67.7129 381.225C61.7389 380.928 56.6607 380.402 52.4782 379.73C53.973 379.506 55.4626 379.209 56.9574 378.834C66.6657 376.668 88.0201 365.845 88.9161 365.397C88.9161 365.397 71.6654 363.678 59.9467 363.678H59.6498C54.1238 363.678 48.3738 361.59 43.8952 359.496L70.7752 355.392C81.973 353.673 91.4578 346.579 93.2485 345.163L96.8318 342.251C241.765 329.855 352.418 236.376 345.098 131.398C343.755 112.21 338.526 93.9911 330.088 77.0378C341.51 76.2149 353.161 75.767 364.733 75.767C376.009 75.767 387.431 76.2149 398.635 76.9597C390.124 93.9077 384.895 112.205 383.624 131.392C376.311 236.6 487.493 330.312 632.944 342.325L636.23 345.013C636.23 345.013 636.303 345.085 636.527 345.236C638.319 346.653 647.803 353.674 658.928 355.393L685.813 359.496Z" fill="#DB3069"/>
<path d="M391.033 361.349L390.882 361.5C387.299 365.755 383.116 367.995 378.788 367.995C374.606 367.995 370.575 365.907 367.064 361.948V253.38C377.892 252.484 386.403 244.792 386.403 235.459C386.403 225.527 376.773 242.777 364.897 242.777C353.028 242.777 343.392 225.526 343.392 235.459C343.392 244.792 351.83 252.407 362.731 253.38V361.948C359.22 365.907 355.189 367.995 351.007 367.995C346.679 367.995 342.496 365.755 338.913 361.5L338.762 361.349C338.017 360.453 336.595 360.302 335.627 361.052C334.731 361.797 334.58 363.219 335.33 364.188L335.481 364.339C339.887 369.568 345.335 372.401 350.939 372.401C355.866 372.401 360.794 370.162 364.825 366.052C368.929 370.157 373.783 372.401 378.71 372.401C384.309 372.401 389.762 369.563 394.169 364.339L394.32 364.188C395.065 363.292 394.992 361.875 394.023 361.052C393.195 360.302 391.851 360.453 391.033 361.349H391.033Z" fill="#DB3069"/>
<path d="M237.886 326.256C246.845 319.985 256.329 314.756 266.037 310.876C268.428 309.907 270.818 309.011 273.204 308.261C288.51 303.11 304.49 300.944 320.693 301.912C320.844 301.912 320.917 301.912 321.068 301.84C321.365 301.689 321.516 301.465 321.589 301.168C321.589 300.944 321.516 300.793 321.365 300.569C321.214 300.418 321.068 300.345 320.844 300.345C304.417 299.376 288.292 301.537 272.761 306.767C270.371 307.59 267.907 308.485 265.595 309.454C255.741 313.412 246.105 318.714 237.073 325.058C217.885 338.574 207.209 352.834 207.131 352.985C206.907 353.36 206.98 353.808 207.282 354.105C207.506 354.256 207.803 354.328 208.026 354.177C208.178 354.105 208.25 354.026 208.323 353.953C208.318 353.808 218.849 339.693 237.886 326.256L237.886 326.256Z" fill="#DB3069"/>
<path d="M326.073 312.816C313.677 313.936 301.584 316.847 290.084 321.477C286.5 322.894 282.917 324.54 279.407 326.332C267.761 332.306 256.781 340.217 246.776 349.78C229.828 365.982 221.391 381.738 221.312 381.884C221.088 382.259 221.239 382.706 221.609 382.93C221.833 383.003 222.057 383.081 222.281 382.93C222.432 382.858 222.578 382.706 222.656 382.555C222.729 382.404 231.02 366.873 247.817 350.821C257.671 341.414 268.5 333.57 280.072 327.675C283.504 325.957 287.014 324.316 290.525 322.894C301.874 318.342 313.822 315.425 326.066 314.306C326.139 314.306 326.217 314.306 326.29 314.233C326.587 314.082 326.811 313.785 326.738 313.41C326.894 313.118 326.519 312.743 326.071 312.816L326.073 312.816Z" fill="#DB3069"/>
<path d="M326.513 306.696C309.789 306.92 293.434 310.206 277.982 316.477C277.383 316.701 276.79 316.998 276.191 317.222C263.425 322.597 251.175 330.066 239.827 339.321C220.561 355.075 210.411 370.977 210.332 371.127C210.108 371.502 210.181 371.95 210.556 372.174C210.78 372.325 211.004 372.325 211.301 372.247C211.452 372.174 211.598 372.096 211.676 371.95C211.749 371.799 221.832 356.043 240.946 340.439C252.144 331.257 264.244 323.94 276.936 318.637C277.535 318.413 278.128 318.116 278.727 317.892C294.034 311.694 310.159 308.486 326.665 308.262C326.738 308.262 326.889 308.262 326.962 308.189C327.258 308.038 327.482 307.814 327.482 307.444C327.482 307.22 327.41 307.069 327.258 306.923C326.889 306.767 326.738 306.694 326.514 306.694L326.513 306.696Z" fill="#DB3069"/>
<path d="M492.873 325.069C483.764 318.647 474.206 313.423 464.352 309.465C461.961 308.496 459.57 307.601 457.185 306.778C441.654 301.549 425.45 299.387 409.102 300.356C408.878 300.356 408.727 300.429 408.581 300.58C408.43 300.731 408.357 300.955 408.357 301.179C408.357 301.476 408.581 301.778 408.878 301.851C408.951 301.924 409.102 301.924 409.253 301.924C425.456 300.955 441.436 303.116 456.743 308.273C459.133 309.095 461.524 309.991 463.909 310.887C473.618 314.846 483.097 319.996 492.06 326.267C511.101 339.631 521.628 353.746 521.7 353.892C521.773 354.043 521.924 354.116 521.997 354.116C522.221 354.189 522.518 354.189 522.742 354.043C522.893 353.892 523.039 353.747 523.039 353.523C523.039 353.299 523.039 353.075 522.887 352.924C522.736 352.84 512.137 338.58 492.871 325.069L492.873 325.069Z" fill="#DB3069"/>
<path d="M482.953 349.776C472.948 340.219 461.974 332.38 450.322 326.328C446.89 324.536 443.301 322.896 439.645 321.474C428.223 316.843 416.124 313.932 403.656 312.812C403.208 312.739 402.833 313.109 402.833 313.484C402.833 313.859 402.984 314.156 403.281 314.307C403.354 314.307 403.432 314.38 403.505 314.38C415.75 315.5 427.698 318.411 439.046 322.969C442.557 324.385 446.067 326.031 449.499 327.75C460.999 333.651 471.822 341.49 481.754 350.895C498.557 366.947 506.842 382.479 506.915 382.63C506.988 382.781 507.139 382.927 507.29 383.005C507.514 383.078 507.738 383.078 507.962 383.005C508.337 382.781 508.483 382.333 508.259 381.958C508.337 381.734 499.9 366.051 482.952 349.775L482.953 349.776Z" fill="#DB3069"/>
<path d="M491.02 336.789C479.671 327.529 467.426 320.065 454.656 314.691C454.057 314.467 453.463 314.17 452.864 313.946C437.405 307.675 421.057 304.388 404.333 304.165C404.109 304.165 403.958 304.238 403.812 304.389C403.661 304.54 403.588 304.764 403.588 304.909C403.588 305.206 403.812 305.508 404.109 305.654C404.182 305.654 404.26 305.727 404.406 305.727C420.985 305.951 437.109 309.238 452.343 315.357C452.942 315.581 453.536 315.805 454.135 316.102C466.828 321.404 478.927 328.795 490.125 337.905C509.239 353.509 519.245 369.265 519.395 369.416C519.468 369.567 519.619 369.639 519.77 369.712C519.994 369.785 520.291 369.785 520.442 369.639C520.817 369.416 520.89 368.895 520.666 368.593C520.437 368.452 510.359 352.619 491.021 336.79L491.02 336.789Z" fill="#DB3069"/>
<path d="M328.233 291.616C327.41 291.689 326.816 292.512 326.889 293.48C326.962 294.449 327.561 295.199 328.306 295.199H328.379C329.124 295.126 329.723 294.303 329.723 293.335C329.65 292.361 328.978 291.616 328.233 291.616V291.616Z" fill="#DB3069"/>
<path d="M338.02 306.096C338.843 306.023 339.436 305.2 339.363 304.231C339.29 303.263 338.691 302.513 337.947 302.513H337.874C337.129 302.585 336.53 303.408 336.53 304.377C336.603 305.273 337.275 306.096 338.02 306.096H338.02Z" fill="#DB3069"/>
<path d="M343.766 297.736C344.589 297.663 345.183 296.84 345.11 295.871C345.037 294.903 344.438 294.153 343.693 294.153H343.62C342.876 294.226 342.277 295.048 342.277 296.017C342.423 296.986 343.021 297.736 343.766 297.736H343.766Z" fill="#DB3069"/>
<path d="M338.02 326.029C338.843 325.956 339.436 325.133 339.363 324.165C339.29 323.196 338.691 322.446 337.947 322.446H337.874C337.129 322.519 336.53 323.342 336.53 324.31C336.603 325.284 337.275 326.029 338.02 326.029H338.02Z" fill="#DB3069"/>
<path d="M347.873 316.256C348.618 316.183 349.217 315.36 349.217 314.391C349.144 313.423 348.545 312.673 347.8 312.673H347.727C346.982 312.746 346.383 313.568 346.383 314.537C346.383 315.506 347.055 316.256 347.873 316.256V316.256Z" fill="#DB3069"/>
<path d="M388.046 296.989C388.869 296.989 389.463 296.245 389.541 295.27C389.614 294.302 389.02 293.479 388.197 293.406H388.124C387.38 293.406 386.708 294.151 386.708 295.125C386.703 296.093 387.301 296.916 388.046 296.989H388.046Z" fill="#DB3069"/>
<path d="M397.686 294.149C396.863 294.149 396.27 294.894 396.191 295.868C396.119 296.837 396.712 297.66 397.535 297.733H397.608C398.353 297.733 399.025 296.988 399.025 296.014C399.03 295.045 398.504 294.227 397.686 294.149V294.149Z" fill="#DB3069"/>
<path d="M378.42 304.896C377.675 304.896 377.003 305.641 377.003 306.615C376.93 307.584 377.524 308.406 378.347 308.479H378.42C379.164 308.479 379.836 307.734 379.836 306.76C379.836 305.714 379.242 304.896 378.42 304.896H378.42Z" fill="#DB3069"/>
<path d="M392.966 307.883C393.789 307.883 394.383 307.138 394.461 306.164C394.534 305.195 393.94 304.372 393.117 304.299H393.044C392.3 304.299 391.628 305.044 391.628 306.018C391.623 306.987 392.221 307.81 392.966 307.883H392.966Z" fill="#DB3069"/>
<path d="M382.38 320.056C381.635 320.056 380.963 320.801 380.963 321.775C380.89 322.743 381.484 323.566 382.307 323.639H382.38C383.124 323.639 383.796 322.894 383.796 321.92C383.796 320.952 383.197 320.129 382.38 320.056V320.056Z" fill="#DB3069"/>
<path d="M392.233 320.656C393.056 320.656 393.65 319.911 393.728 318.937C393.801 317.968 393.207 317.145 392.384 317.073H392.311C391.566 317.073 390.894 317.817 390.894 318.791C390.889 319.833 391.488 320.656 392.233 320.656V320.656Z" fill="#DB3069"/>
<path d="M268.66 246.509C276.498 246.509 282.774 238.968 282.774 229.635C282.774 220.302 276.425 212.76 268.66 212.76C260.894 212.76 254.545 220.302 254.545 229.635C254.472 238.895 260.821 246.509 268.66 246.509ZM274.259 219.479C276.571 219.479 278.514 221.718 278.514 224.557C278.514 227.317 276.649 229.635 274.259 229.635C271.946 229.635 270.003 227.395 270.003 224.557C270.003 221.718 271.946 219.479 274.259 219.479Z" fill="#DB3069"/>
<path d="M461.14 246.509C468.978 246.509 475.254 238.968 475.254 229.635C475.254 220.302 468.905 212.76 461.14 212.76C453.301 212.76 447.025 220.302 447.025 229.635C447.03 238.895 453.374 246.509 461.14 246.509ZM466.817 219.479C469.129 219.479 471.072 221.718 471.072 224.557C471.072 227.317 469.207 229.635 466.817 229.635C464.504 229.635 462.561 227.395 462.561 224.557C462.556 221.718 464.426 219.479 466.817 219.479Z" fill="#DB3069"/>
</svg>
