<svg width="731" height="417" viewBox="0 0 731 417" fill="none" xmlns="http://www.w3.org/2000/svg">
<path d="M692.107 315.333C684.117 315.333 677.399 315.109 672.096 314.734C665.45 314.214 658.955 311.823 653.727 309.135C657.383 309.51 661.716 309.88 666.716 310.104C668.357 310.177 670.227 310.255 672.091 310.255C690.159 310.255 711.815 306.672 712.711 306.521L730.482 303.536L712.711 300.328C712.487 300.255 687.695 295.698 667.461 282.708C655.065 274.791 653.721 267.401 653.799 264.416C654.768 258.369 655.294 252.244 655.294 246.271C655.294 205.281 632.149 165.781 589.961 134.344C608.179 94.6201 633.565 7.70813 625.726 2.63079C601.757 -13.0519 524.627 46.1615 495.731 88.3495C466.315 79.3131 434.429 73.4175 401.278 70.8761C389.481 69.9803 377.461 69.5324 365.585 69.5324C353.413 69.5324 341.169 69.9803 329.147 70.9491C296.293 73.4855 264.71 79.3865 235.517 88.3451C206.621 46.1571 129.563 -12.9776 105.595 2.70505C97.7568 7.85612 123.142 94.6224 141.289 134.418C99.0287 165.929 75.882 205.35 75.882 246.418C75.882 252.543 76.4029 258.887 77.4498 265.085C77.2987 268.668 75.2831 275.465 63.7884 282.782C43.6271 295.699 18.8404 300.329 18.5378 300.402L0.76709 303.611L18.5378 306.595C19.4336 306.746 41.0844 310.329 59.1578 310.329C61.0223 310.329 62.8922 310.257 64.5327 310.178C69.5379 309.954 73.866 309.579 77.5223 309.21C72.2931 311.897 65.7983 314.288 59.153 314.809C53.8508 315.257 47.1322 315.408 39.1423 315.408C27.1215 315.408 16.3716 314.887 16.293 314.887L5.83988 314.439L14.2774 320.637C14.9492 321.158 31.0014 332.809 45.116 334.001C42.9494 334.074 40.2619 334.074 37.1264 334.074C31.7515 334.074 26.8972 334.001 26.8243 334.001L17.0431 333.777L25.0327 339.678C25.1837 339.829 28.9911 342.589 34.59 345.355C43.1004 349.61 51.0167 351.553 57.8087 351.105C58.1056 351.105 58.4077 351.032 58.7774 351.032L26.8974 355.886L33.4704 360.438C34.0693 360.813 47.4344 369.996 60.5744 370.069H60.8712C62.215 370.069 63.5587 369.996 64.9024 369.917C61.6942 371.188 58.6316 372.23 56.465 372.756C46.7567 374.923 35.8557 375.371 35.7823 375.371L23.3864 375.891L34.5115 381.417C34.9594 381.641 45.1886 386.568 68.3342 387.615C73.2612 387.839 83.9382 388.136 98.7982 388.662C153.454 390.381 255.225 393.516 291.585 398.292C292.408 398.443 296.512 399.787 300.767 401.204C317.418 406.657 348.33 416.808 365.726 416.808C383.122 416.808 414.111 406.652 430.684 401.204C435.013 399.787 439.122 398.443 439.945 398.292C476.382 393.511 578.158 390.376 632.812 388.662C647.672 388.214 658.347 387.839 663.275 387.615C686.421 386.568 696.65 381.568 697.098 381.417L708.223 375.891L695.827 375.443C695.754 375.443 684.853 374.996 675.145 372.829C672.905 372.308 669.915 371.261 666.707 369.99C668.051 370.063 669.395 370.141 670.738 370.141H671.035C684.176 370.068 697.541 360.881 698.139 360.511L704.712 355.959L672.832 351.105C673.129 351.105 673.431 351.178 673.801 351.178C674.4 351.251 675.072 351.251 675.744 351.251C682.238 351.251 689.484 349.235 697.249 345.35C702.775 342.589 706.431 339.897 706.655 339.751L714.645 333.85L704.713 334.001C704.64 334.001 699.786 334.074 694.411 334.074C691.275 334.074 688.66 334.074 686.421 334.001C700.609 332.808 716.588 321.157 717.26 320.637L725.697 314.439L715.244 314.887C714.874 314.887 704.124 315.335 692.104 315.335L692.107 315.333ZM605.94 19.7333C611.315 23.2437 594.216 87.8266 581.3 118.968C583.092 109.708 583.691 100.973 588.394 87.4573C579.732 101.119 579.659 99.551 570.024 112.619C578.311 95.816 576.295 94.7746 584.587 77.9733C574.285 93.5773 568.68 97.8333 557.259 112.771C566.145 96.2706 575.03 79.844 583.915 63.344C573.087 78.5786 561.664 93.5106 549.644 107.995C557.634 93.9586 573.838 67.3746 581.899 53.3386C574.061 63.7189 557.858 86.4173 549.571 96.4946C556.738 84.6977 571.3 60.7293 578.467 48.932C568.389 61.6246 550.54 86.2653 539.79 98.4373C549.644 82.5306 559.576 66.7026 569.582 50.8746C557.634 65.3586 545.316 79.5466 532.472 93.3586C542.925 77.828 547.852 70.4373 558.384 54.9786C545.916 69.0933 538.598 74.692 525.234 88.1293C534.567 74.9157 538.077 69.9106 547.556 56.8426C534.64 70.8066 524.707 79.6133 512.614 90.6653C532.322 60.6493 588.696 8.46264 605.942 19.7333H605.94ZM461.913 206.853C472.439 206.853 480.955 217.083 480.955 229.703C480.955 242.323 472.444 252.552 461.913 252.552C451.387 252.552 442.872 242.323 442.872 229.703C442.872 217.083 451.388 206.853 461.913 206.853ZM269.42 206.853C279.946 206.853 288.461 217.083 288.461 229.703C288.461 242.323 279.951 252.552 269.42 252.552C258.894 252.552 250.379 242.323 250.379 229.703C250.306 217.083 258.894 206.853 269.42 206.853ZM125.393 19.7333C142.644 8.4573 199.013 60.7226 218.8 90.6653C206.706 79.6132 196.847 70.8053 183.857 56.8426C193.342 69.9104 196.847 74.9106 206.18 88.1293C192.816 74.692 185.497 69.088 173.029 54.9786C183.633 70.4373 188.56 77.7493 198.941 93.3586C186.098 79.5466 173.701 65.3586 161.832 50.8746C171.837 66.7026 181.769 82.5306 191.624 98.4373C180.796 86.2654 162.952 61.6253 152.947 48.932C160.113 60.7289 174.676 84.6973 181.843 96.4946C173.556 86.4165 157.353 63.7133 149.515 53.3386C157.577 67.3746 173.708 93.9586 181.769 107.995C169.749 93.5106 158.321 78.5786 147.499 63.344C156.384 79.844 165.196 96.3493 174.155 112.771C162.655 97.8386 157.056 93.5826 146.827 77.9733C155.113 94.776 153.025 95.8173 161.389 112.619C151.759 99.5509 151.681 101.119 143.02 87.4573C147.723 100.973 148.395 109.708 150.114 118.968C137.119 87.832 120.02 23.244 125.395 19.7333H125.393ZM686.58 359.547C682.101 361.635 676.351 363.651 670.825 363.729H670.529C658.883 363.729 641.559 365.448 641.559 365.448C642.455 365.896 663.81 376.724 673.518 378.885C675.013 379.182 676.502 379.484 677.997 379.781C673.815 380.453 668.737 380.974 662.762 381.276C657.908 381.5 647.232 381.797 632.45 382.323C577.644 384.041 475.73 387.177 438.984 391.953C437.791 392.104 435.103 393 428.603 395.088C413.447 400.015 381.937 410.395 365.582 410.395C349.227 410.395 317.722 400.093 302.561 395.088C296.139 393 293.451 392.104 292.259 391.953C255.524 387.172 153.605 383.963 98.7919 382.323C84.0053 381.875 73.3279 381.5 68.4799 381.276C62.5059 380.979 57.4278 380.453 53.2453 379.781C54.7401 379.557 56.2297 379.26 57.7245 378.885C67.4327 376.718 88.7871 365.895 89.6831 365.448C89.6831 365.448 72.4325 363.729 60.7138 363.729H60.4169C54.8909 363.729 49.1409 361.64 44.6623 359.547L71.5423 355.443C82.7401 353.724 92.2249 346.63 94.0156 345.213L97.5989 342.302C242.532 329.906 353.186 236.427 345.866 131.449C344.522 112.261 339.293 94.0418 330.855 77.0885C342.277 76.2656 353.928 75.8177 365.5 75.8177C376.776 75.8177 388.198 76.2656 399.402 77.0104C390.891 93.9584 385.662 112.256 384.391 131.442C377.078 236.65 488.26 330.362 633.711 342.376L636.997 345.063C636.997 345.063 637.07 345.136 637.294 345.287C639.086 346.704 648.57 353.725 659.696 355.443L686.58 359.547Z" fill="black"/>
<path d="M391.8 361.4L391.649 361.551C388.066 365.806 383.883 368.046 379.555 368.046C375.373 368.046 371.342 365.957 367.831 361.999V253.431C378.659 252.535 387.17 244.842 387.17 235.51C387.17 225.577 377.54 242.827 365.665 242.827C353.795 242.827 344.159 225.577 344.159 235.51C344.159 244.843 352.597 252.458 363.498 253.431V361.999C359.987 365.957 355.956 368.046 351.774 368.046C347.446 368.046 343.264 365.806 339.68 361.551L339.529 361.4C338.784 360.504 337.362 360.353 336.394 361.103C335.498 361.848 335.347 363.27 336.097 364.239L336.248 364.39C340.654 369.619 346.102 372.452 351.706 372.452C356.634 372.452 361.561 370.213 365.592 366.103C369.696 370.207 374.55 372.452 379.477 372.452C385.076 372.452 390.529 369.614 394.936 364.39L395.087 364.239C395.832 363.343 395.759 361.926 394.79 361.103C393.962 360.353 392.618 360.504 391.8 361.4H391.8Z" fill="black"/>
<path d="M238.653 326.307C247.612 320.036 257.096 314.807 266.804 310.927C269.195 309.958 271.585 309.062 273.971 308.312C289.277 303.161 305.257 300.994 321.46 301.963C321.611 301.963 321.684 301.963 321.835 301.89C322.132 301.739 322.283 301.515 322.356 301.218C322.356 300.994 322.283 300.843 322.132 300.619C321.981 300.468 321.835 300.395 321.611 300.395C305.184 299.427 289.059 301.588 273.528 306.817C271.138 307.64 268.674 308.536 266.362 309.505C256.508 313.463 246.872 318.765 237.84 325.109C218.652 338.625 207.976 352.885 207.898 353.035C207.674 353.41 207.747 353.858 208.049 354.155C208.273 354.306 208.57 354.379 208.794 354.228C208.945 354.155 209.018 354.077 209.09 354.004C209.085 353.858 219.616 339.744 238.653 326.307L238.653 326.307Z" fill="black"/>
<path d="M326.84 312.867C314.444 313.986 302.351 316.898 290.851 321.528C287.267 322.945 283.684 324.591 280.174 326.382C268.528 332.356 257.548 340.268 247.543 349.83C230.595 366.033 222.158 381.789 222.079 381.934C221.855 382.309 222.006 382.757 222.376 382.981C222.6 383.054 222.824 383.132 223.048 382.981C223.199 382.908 223.345 382.757 223.423 382.606C223.496 382.455 231.787 366.923 248.584 350.871C258.438 341.465 269.267 333.621 280.839 327.726C284.271 326.007 287.781 324.367 291.292 322.945C302.641 318.393 314.589 315.476 326.833 314.356C326.906 314.356 326.984 314.356 327.057 314.283C327.354 314.132 327.578 313.836 327.505 313.461C327.661 313.169 327.286 312.794 326.838 312.867L326.84 312.867Z" fill="black"/>
<path d="M327.28 306.747C310.556 306.971 294.201 310.257 278.749 316.528C278.15 316.752 277.557 317.049 276.958 317.273C264.192 322.648 251.942 330.116 240.594 339.371C221.328 355.126 211.178 371.027 211.099 371.178C210.875 371.553 210.948 372.001 211.323 372.225C211.547 372.376 211.771 372.376 212.068 372.298C212.219 372.225 212.365 372.147 212.443 372.001C212.516 371.85 222.599 356.094 241.713 340.49C252.911 331.308 265.011 323.99 277.703 318.688C278.302 318.464 278.895 318.167 279.494 317.943C294.801 311.745 310.926 308.536 327.432 308.312C327.505 308.312 327.656 308.312 327.729 308.24C328.026 308.089 328.25 307.865 328.25 307.495C328.25 307.271 328.177 307.12 328.026 306.974C327.656 306.818 327.505 306.745 327.281 306.745L327.28 306.747Z" fill="black"/>
<path d="M493.64 325.12C484.531 318.698 474.973 313.474 465.119 309.516C462.728 308.547 460.337 307.651 457.952 306.829C442.421 301.599 426.217 299.438 409.869 300.407C409.645 300.407 409.494 300.48 409.349 300.631C409.197 300.782 409.125 301.006 409.125 301.23C409.125 301.526 409.349 301.829 409.645 301.901C409.718 301.974 409.869 301.974 410.02 301.974C426.223 301.006 442.203 303.167 457.51 308.323C459.9 309.146 462.291 310.042 464.676 310.938C474.385 314.896 483.864 320.047 492.827 326.318C511.868 339.682 522.395 353.797 522.467 353.943C522.54 354.094 522.691 354.167 522.764 354.167C522.988 354.24 523.285 354.24 523.509 354.094C523.66 353.943 523.806 353.797 523.806 353.573C523.806 353.349 523.806 353.125 523.655 352.974C523.504 352.891 512.905 338.63 493.639 325.12L493.64 325.12Z" fill="black"/>
<path d="M483.72 349.827C473.715 340.269 462.741 332.431 451.089 326.379C447.657 324.587 444.069 322.946 440.412 321.524C428.99 316.894 416.891 313.983 404.423 312.863C403.975 312.79 403.6 313.16 403.6 313.535C403.6 313.91 403.751 314.207 404.048 314.358C404.121 314.358 404.199 314.431 404.272 314.431C416.517 315.551 428.465 318.462 439.813 323.019C443.324 324.436 446.834 326.082 450.266 327.8C461.766 333.702 472.589 341.54 482.521 350.946C499.324 366.998 507.609 382.53 507.682 382.68C507.755 382.831 507.906 382.977 508.057 383.055C508.281 383.128 508.505 383.128 508.729 383.055C509.104 382.831 509.25 382.384 509.026 382.009C509.104 381.785 500.667 366.102 483.719 349.826L483.72 349.827Z" fill="black"/>
<path d="M491.787 336.84C480.438 327.58 468.193 320.116 455.423 314.741C454.824 314.517 454.23 314.221 453.631 313.997C438.172 307.726 421.824 304.439 405.1 304.215C404.876 304.215 404.725 304.288 404.579 304.439C404.428 304.59 404.355 304.814 404.355 304.96C404.355 305.257 404.579 305.559 404.876 305.705C404.949 305.705 405.027 305.778 405.173 305.778C421.752 306.002 437.876 309.288 453.111 315.408C453.71 315.632 454.303 315.856 454.902 316.153C467.595 321.455 479.694 328.846 490.892 337.956C510.006 353.56 520.012 369.316 520.162 369.466C520.235 369.617 520.386 369.69 520.537 369.763C520.761 369.836 521.058 369.836 521.209 369.69C521.584 369.466 521.657 368.945 521.433 368.643C521.204 368.503 511.126 352.67 491.788 336.841L491.787 336.84Z" fill="black"/>
<path d="M329 291.667C328.177 291.74 327.583 292.562 327.656 293.531C327.729 294.5 328.328 295.25 329.073 295.25H329.146C329.891 295.177 330.49 294.354 330.49 293.385C330.417 292.411 329.745 291.667 329 291.667V291.667Z" fill="black"/>
<path d="M338.787 306.147C339.61 306.074 340.203 305.251 340.13 304.282C340.058 303.313 339.459 302.563 338.714 302.563H338.641C337.896 302.636 337.297 303.459 337.297 304.428C337.37 305.324 338.042 306.147 338.787 306.147H338.787Z" fill="black"/>
<path d="M344.533 297.787C345.356 297.714 345.95 296.891 345.877 295.922C345.804 294.953 345.205 294.203 344.46 294.203H344.388C343.643 294.276 343.044 295.099 343.044 296.068C343.19 297.037 343.789 297.787 344.533 297.787H344.533Z" fill="black"/>
<path d="M338.787 326.08C339.61 326.007 340.203 325.184 340.13 324.215C340.058 323.247 339.459 322.497 338.714 322.497H338.641C337.896 322.57 337.297 323.392 337.297 324.361C337.37 325.335 338.042 326.08 338.787 326.08H338.787Z" fill="black"/>
<path d="M348.64 316.307C349.385 316.234 349.984 315.411 349.984 314.442C349.911 313.473 349.312 312.723 348.567 312.723H348.494C347.749 312.796 347.15 313.619 347.15 314.588C347.15 315.557 347.822 316.307 348.64 316.307V316.307Z" fill="black"/>
<path d="M388.813 297.04C389.636 297.04 390.23 296.295 390.308 295.321C390.381 294.352 389.787 293.529 388.964 293.457H388.891C388.147 293.457 387.475 294.201 387.475 295.175C387.47 296.144 388.069 296.967 388.813 297.04H388.813Z" fill="black"/>
<path d="M398.453 294.2C397.63 294.2 397.037 294.945 396.959 295.919C396.886 296.887 397.479 297.71 398.302 297.783H398.375C399.12 297.783 399.792 297.039 399.792 296.064C399.797 295.096 399.271 294.278 398.453 294.2V294.2Z" fill="black"/>
<path d="M379.187 304.947C378.442 304.947 377.77 305.691 377.77 306.665C377.697 307.634 378.291 308.457 379.114 308.53H379.187C379.931 308.53 380.603 307.785 380.603 306.811C380.603 305.764 380.01 304.947 379.187 304.947H379.187Z" fill="black"/>
<path d="M393.733 307.933C394.556 307.933 395.15 307.188 395.228 306.214C395.301 305.246 394.707 304.423 393.884 304.35H393.812C393.067 304.35 392.395 305.095 392.395 306.069C392.39 307.038 392.989 307.861 393.733 307.933H393.733Z" fill="black"/>
<path d="M383.147 320.107C382.402 320.107 381.73 320.851 381.73 321.825C381.657 322.794 382.251 323.617 383.074 323.69H383.147C383.891 323.69 384.563 322.945 384.563 321.971C384.563 321.002 383.964 320.179 383.147 320.107V320.107Z" fill="black"/>
<path d="M393 320.707C393.823 320.707 394.417 319.962 394.495 318.988C394.568 318.019 393.974 317.196 393.151 317.123H393.078C392.333 317.123 391.662 317.868 391.662 318.842C391.656 319.884 392.255 320.707 393 320.707V320.707Z" fill="black"/>
<path d="M269.427 246.56C277.265 246.56 283.541 239.018 283.541 229.685C283.541 220.352 277.192 212.811 269.427 212.811C261.661 212.811 255.312 220.352 255.312 229.685C255.239 238.946 261.588 246.56 269.427 246.56ZM275.026 219.529C277.338 219.529 279.281 221.769 279.281 224.607C279.281 227.368 277.416 229.686 275.026 229.686C272.713 229.686 270.77 227.446 270.77 224.607C270.77 221.769 272.713 219.529 275.026 219.529Z" fill="black"/>
<path d="M461.907 246.56C469.745 246.56 476.021 239.018 476.021 229.685C476.021 220.352 469.672 212.811 461.907 212.811C454.068 212.811 447.792 220.352 447.792 229.685C447.797 238.946 454.141 246.56 461.907 246.56ZM467.584 219.529C469.896 219.529 471.839 221.769 471.839 224.607C471.839 227.368 469.974 229.686 467.584 229.686C465.271 229.686 463.329 227.446 463.329 224.607C463.323 221.769 465.193 219.529 467.584 219.529Z" fill="black"/>
</svg>
