<svg width="1148" height="644" viewBox="0 0 1148 644" fill="none" xmlns="http://www.w3.org/2000/svg">
<path d="M730.593 100.437L725.659 101.249L725.664 101.248C725.274 101.317 724.932 101.536 724.709 101.861C724.487 102.191 724.405 102.597 724.49 102.989L725.262 106.645C726.83 114.069 728.465 121.782 729.747 129.383L729.741 129.379C729.805 129.77 730.03 130.116 730.355 130.339C730.671 130.574 731.078 130.661 731.463 130.567L733.838 130.09C743.047 128.085 752.349 126.551 761.709 125.498L761.827 125.477C762.18 125.41 762.501 125.221 762.726 124.933C762.97 124.609 763.073 124.205 763.014 123.808C761.435 113.805 760.342 104.844 759.683 96.4294L759.684 96.4346C759.645 96.0025 759.422 95.6081 759.071 95.358C758.718 95.0976 758.271 95.0178 757.847 95.1348C748.889 97.4179 739.596 98.9505 730.594 100.437L730.593 100.437Z" fill="#DB3069"/>
<path d="M774.089 139.112C784.287 137.588 792.633 136.783 800.018 136.073C807.177 135.403 813.298 134.752 819.261 133.717L822.944 133.067L824.76 132.747L828.989 131.806L828.994 131.805C831.626 131.256 834.216 130.525 836.747 129.613C840.673 128.513 844.096 126.091 846.449 122.762C848.075 120.254 848.905 117.315 848.828 114.33L848.817 114.263C848.769 113.124 848.503 112.002 848.034 110.963C847.909 110.705 847.717 110.485 847.478 110.331C847.006 110.05 846.521 109.792 846.021 109.562C841.849 107.86 837.319 107.215 832.837 107.677C824.128 108.197 815.48 109.484 806.997 111.52C801.604 112.73 795.681 114.202 788.892 116.013C785.574 116.899 782.107 117.844 778.441 118.855L775.571 119.647C774.053 120.063 772.514 120.487 770.898 120.92L770.899 120.926C770.171 121.117 769.715 121.827 769.829 122.563C770.666 127.699 771.533 132.798 772.436 137.917L772.437 137.922C772.574 138.702 773.308 139.234 774.09 139.112L774.089 139.112Z" fill="#DB3069"/>
<path d="M446.694 132.002L446.771 131.988C455.033 130.103 463.491 128.342 471.911 126.757C472.695 126.613 473.217 125.855 473.074 125.071L472.813 123.594C471.979 118.622 471.028 112.987 467.212 111.201C464.428 110.232 461.349 110.733 459.011 112.531C452.35 116.477 447.383 122.741 445.061 130.122C444.904 130.61 445.013 131.14 445.35 131.52C445.683 131.905 446.195 132.085 446.698 131.996L446.694 132.002Z" fill="#DB3069"/>
<path d="M780.009 179.592C780.318 179.818 780.71 179.913 781.092 179.856C793.811 177.846 806.537 175.962 819.272 174.076C838.534 171.229 858.449 168.284 877.984 164.908L877.985 164.913C878.692 164.783 879.206 164.158 879.189 163.437C878.521 134.689 876.962 104.316 865.999 76.7541C865.744 76.1168 865.087 75.7462 864.412 75.8493C851.934 77.8169 839.38 80.3742 827.244 82.842C807.604 87.1989 787.736 90.4801 767.739 92.6627C767.345 92.6793 766.979 92.8548 766.725 93.1535C766.476 93.4512 766.36 93.8419 766.413 94.2293C766.937 101.012 767.579 107.055 768.348 112.642L768.353 112.641C768.405 113.055 768.634 113.427 768.981 113.657C769.324 113.893 769.755 113.965 770.159 113.857C771.334 113.56 772.52 113.239 773.692 112.927L787.23 109.413C793.769 107.774 800.01 106.43 805.781 105.412C814.747 103.62 823.908 102.999 833.031 103.569C837.404 103.777 841.643 105.139 845.31 107.523C845.465 107.649 845.649 107.733 845.842 107.778L846.239 107.872L846.24 107.877C846.487 107.924 846.725 107.988 846.967 108.067C847.961 108.457 848.84 109.095 849.52 109.922C850.395 111.043 851.023 112.328 851.372 113.705C852.216 117.385 851.743 121.239 850.036 124.603C848.968 126.795 847.454 128.739 845.589 130.305C843.5 132.017 841.182 133.42 838.699 134.482C836 135.645 833.221 136.616 830.384 137.386L825.586 138.666C824.554 138.933 823.358 139.17 822.194 139.407L820.357 139.784C813.097 141.381 805.021 142.308 795.649 143.39C789.221 144.131 782.567 144.903 775.405 145.975L775.364 145.983L775.363 145.977C774.988 146.043 774.656 146.256 774.435 146.564C774.201 146.886 774.113 147.287 774.182 147.677C775.869 156.889 777.809 167.768 779.402 178.601C779.456 178.998 779.678 179.361 780.01 179.593L780.009 179.592Z" fill="#DB3069"/>
<path d="M922.074 89.988C922.386 90.4355 922.925 90.6736 923.466 90.5941L924.558 90.4014C938.063 88.0201 942.036 76.8639 945.881 66.0691C948.838 57.7628 951.888 49.1761 959.303 44.4675L959.304 44.4727C959.926 44.0721 960.144 43.2669 959.821 42.6046C959.159 40.9496 957.639 39.8001 955.866 39.6104C951.127 39.219 945.297 46.4082 939.687 54.2146C938.965 55.2199 938.43 55.9647 938.17 56.2591C934.324 61.1735 929.338 65.0778 923.651 67.646C917.992 69.5958 912.016 70.4645 906.04 70.2012C905.392 70.1568 904.803 70.5622 904.611 71.1831C904.405 71.7853 904.613 72.4521 905.129 72.8318C911.67 77.5964 917.388 83.3894 922.074 89.9887L922.074 89.988Z" fill="#DB3069"/>
<path d="M509.595 175.378C509.437 174.602 508.693 174.099 507.914 174.241L501.754 175.328C496.737 176.27 491.779 177.303 486.785 178.348L486.175 178.455L486.174 178.45C485.768 178.543 485.421 178.795 485.215 179.159C485.009 179.518 484.963 179.949 485.091 180.344C488.5 190.558 496.9 189.13 504.314 187.865C505.956 187.576 507.617 187.283 509.271 187.123L509.27 187.118C509.673 187.095 510.072 187.046 510.468 186.981C510.846 186.909 511.189 186.695 511.413 186.375C511.637 186.056 511.721 185.66 511.649 185.281C511.244 182.984 510.736 180.704 510.249 178.42L509.595 175.378Z" fill="#DB3069"/>
<path d="M724.204 94.4557L729.578 93.561C740.371 91.9963 751.056 89.7897 761.583 86.9499C762.133 86.7101 762.52 86.7159 762.872 86.4951L762.873 86.5002C763.301 86.2556 763.785 86.1226 764.281 86.1145C785.062 83.968 805.697 80.5941 826.081 76.0161C839.536 73.2627 853.446 70.4188 867.267 68.3572C868.965 68.0578 870.601 69.118 871.027 70.7881C871.127 71.0825 871.093 71.1573 871.277 71.3046C883.514 100.392 885.287 133.065 886.014 161.421C886.028 161.89 886.262 162.319 886.643 162.585C886.956 162.805 887.347 162.889 887.726 162.822C887.804 162.814 887.881 162.8 887.957 162.782C891.44 161.538 894.723 159.791 897.704 157.594C901.815 154.6 905.392 150.923 908.269 146.724C912.474 140.789 914.921 133.789 915.327 126.525C915.412 122.596 914.932 118.677 913.893 114.884C913.737 114.298 913.612 113.706 913.522 113.109C913.972 113.532 914.4 113.98 914.796 114.455C916.997 117.277 918.447 120.612 919.017 124.145C919.107 124.595 919.395 124.972 919.807 125.175C920.212 125.373 920.693 125.373 921.101 125.168C921.645 124.893 922.153 124.623 922.574 124.374L922.57 124.38C922.712 124.287 922.836 124.18 922.945 124.05C923.045 123.926 923.158 123.817 923.284 123.72C923.565 123.512 923.76 123.208 923.837 122.867C929.111 99.5702 904.389 76.8785 884.52 69.445L884.526 69.4492C883.279 69.0662 882.414 67.9389 882.369 66.6352C882.364 66.4828 882.337 66.3289 882.29 66.1838C881.362 63.8035 880.574 61.3722 879.932 58.8993C879.745 58.2023 879.083 57.7478 878.367 57.8213C863.648 59.38 848.944 62.2743 834.719 65.0838C820.587 67.8718 805.943 70.7501 791.365 72.2947C788.243 72.6178 785.005 72.9085 781.698 73.2007C761.442 74.9954 738.491 77.0483 722.691 89.9305L722.692 89.9357C722.28 90.2675 722.088 90.7985 722.179 91.3165C722.304 92.0243 722.422 92.6963 722.577 93.3619L722.572 93.3628C722.758 94.0914 723.46 94.5601 724.203 94.4555L724.204 94.4557Z" fill="#DB3069"/>
<path d="M927.372 229.142C926.093 228.881 924.873 228.377 923.784 227.659C923.343 227.378 922.787 227.348 922.322 227.589C921.862 227.829 921.563 228.294 921.534 228.818C921.743 232.911 920.849 236.988 918.934 240.615C917.025 244.246 914.172 247.293 910.674 249.439C898.54 256.179 884.6 258.944 870.805 257.346C864.997 256.8 859.728 253.704 856.421 248.893C849.273 238.079 852.597 219.95 855.214 210.106C855.343 209.634 855.222 209.132 854.899 208.766C854.575 208.4 854.094 208.22 853.608 208.285L847.771 209.103C842.389 209.866 837.307 210.588 832.752 211C831.668 211.091 830.577 211.172 829.499 211.24C828.423 211.314 827.274 211.395 826.159 211.491L826.164 211.49C825.634 211.541 825.174 211.876 824.953 212.359C824.738 212.852 824.807 213.421 825.141 213.844C828.66 218.417 831.466 223.502 833.458 228.921C834.299 231.142 835.101 233.65 835.944 236.299C839.04 246.002 842.556 257.001 850.28 262.298C860.991 269.622 876.071 269.19 890.203 266.698C894.429 265.953 898.566 265.027 902.479 264.068C919.311 259.915 927.34 245.432 932.969 231.794C933.147 231.365 933.108 230.875 932.874 230.477C932.63 230.082 932.214 229.822 931.747 229.782C930.277 229.666 928.817 229.453 927.371 229.142L927.372 229.142Z" fill="#DB3069"/>
<path d="M529.218 170.415L517.633 172.495C517.242 172.559 516.896 172.784 516.673 173.109C516.45 173.434 516.373 173.838 516.457 174.226C516.718 175.465 516.978 176.699 517.248 177.931C517.712 180.054 518.164 182.169 518.557 184.306C518.573 184.398 518.585 184.766 518.602 184.858L518.596 184.859C518.728 185.608 519.412 186.128 520.172 186.057C523.901 185.701 527.649 185.331 531.389 184.883L531.466 184.869C532.251 184.736 532.781 183.992 532.652 183.201C532.255 180.706 531.889 178.21 531.52 175.7L530.911 171.619L530.912 171.624C530.849 171.233 530.639 170.884 530.318 170.655C529.998 170.426 529.6 170.332 529.216 170.4L529.218 170.415Z" fill="#DB3069"/>
<path d="M953.067 152.042C951.919 143.852 947.444 136.496 940.698 131.715C936.951 128.879 932.091 127.981 927.578 129.289C927.161 129.416 926.728 129.476 926.291 129.458C925.91 129.457 925.545 129.606 925.27 129.876C923.649 131.362 921.856 132.652 919.928 133.716C919.55 133.942 919.289 134.321 919.223 134.755C918.382 140.182 916.442 145.379 913.518 150.03C910.513 155.034 906.574 159.42 901.917 162.939C896.515 166.885 890.338 169.65 883.799 171.052C883.225 171.153 882.727 171.241 882.111 171.286C860.502 175.033 839.577 178.109 819.344 181.089C806.065 183.04 792.786 184.995 779.337 187.128C779.141 187.158 778.953 187.228 778.781 187.332C777.765 187.929 776.562 188.125 775.408 187.879C775.21 187.835 775.007 187.828 774.813 187.863C770.432 188.572 766.014 189.314 761.578 190.064C761.137 190.142 760.751 190.416 760.541 190.813C760.325 191.21 760.314 191.683 760.496 192.09C760.921 193.057 761.35 194.023 761.733 195.024C764.619 202.215 766.708 207.464 776.835 207.249C782.657 207.121 788.546 206.961 794.402 206.758C806.524 206.308 818.794 205.229 830.672 204.176C835.088 203.789 839.504 203.396 843.933 203.023C848.509 202.639 853.238 202.043 858.222 201.423C873.837 199.463 890.002 197.438 903.833 201.43L903.828 201.431C911.037 202.783 917.398 206.977 921.486 213.063C927.047 223.67 935.823 223.83 945.271 222.165C946.215 221.998 947.169 221.83 948.136 221.612L948.142 221.616C948.806 221.483 949.296 220.905 949.314 220.225C948.97 209.724 947.396 199.303 944.626 189.171C941.945 179.246 940.38 169.051 939.976 158.777C939.768 157.84 939.955 156.861 940.485 156.058C941.018 155.393 941.788 154.956 942.638 154.833C945.691 154.326 948.755 153.918 951.749 153.623C952.135 153.592 952.489 153.408 952.737 153.11C952.986 152.812 953.104 152.427 953.067 152.042L953.067 152.042Z" fill="#DB3069"/>
<path d="M1144.39 307.989C1142.81 305.951 1141.12 304.005 1139.33 302.159C1128.46 290.59 1118.74 277.998 1110.29 264.551C1105.67 257.538 1101.34 250.222 1097.14 243.14C1083.86 220.709 1070.15 197.551 1046.08 182.757L1046.08 182.761C1017.14 164.002 982.416 156.289 948.257 161.033C947.519 161.137 946.972 161.783 946.994 162.535C947.642 172.031 949.195 181.44 951.637 190.64C953.925 199.323 955.435 208.19 956.162 217.142C956.181 217.546 956.369 217.926 956.685 218.187C957.001 218.449 957.407 218.562 957.816 218.511C975.668 216.099 992.213 237.737 996.856 244.423C1004.78 255.889 1010.67 268.627 1014.29 282.082C1017.07 294.871 1018.19 307.965 1017.61 321.036C1017.6 325.464 1017.59 329.924 1017.71 334.44C1017.74 335.181 1018.31 335.794 1019.05 335.859C1022.27 336.127 1025.47 336.23 1028.54 336.18C1028.95 336.176 1029.35 335.99 1029.62 335.672C1029.89 335.355 1030.02 334.941 1029.96 334.528C1028.65 324.901 1028.24 315.796 1027.89 307.773C1027.73 304.246 1027.58 300.809 1027.37 297.542L1027.36 297.538C1026.89 286.091 1024.97 274.747 1021.64 263.784C1020.8 261.519 1019.97 259.291 1019.14 257.117C1018.26 254.998 1017.25 252.933 1016.11 250.939C1014.15 247.213 1011.96 243.606 1009.57 240.13C1005.67 234.429 1001.15 229.175 996.098 224.466C992.374 221.045 988.242 218.098 983.793 215.688C980.757 214.155 977.567 212.951 974.274 212.093C973.729 211.973 973.224 211.834 972.747 211.712C972.124 211.536 971.505 211.386 970.895 211.283L970.818 211.296L971.013 211.262C971.9 211.164 972.794 211.138 973.685 211.182L974.48 211.19L974.485 211.189C978.019 211.375 981.5 212.104 984.815 213.355C989.81 215.346 994.477 218.061 998.675 221.415C1004.38 225.973 1009.46 231.248 1013.81 237.107C1016.49 240.665 1018.95 244.389 1021.16 248.25C1022.41 250.336 1023.53 252.497 1024.53 254.711L1027.53 262.211C1031.3 273.493 1033.51 285.236 1034.09 297.122C1034.37 300.839 1034.55 304.562 1034.74 308.369C1035.14 316.443 1035.55 324.811 1036.91 334.356C1037.03 335.134 1037.73 335.681 1038.51 335.597C1042.09 335.219 1045.69 334.69 1049.3 334.054C1058.41 332.448 1067.57 330.156 1076.46 327.932L1076.47 327.931C1089.94 324.132 1103.72 321.506 1117.66 320.076L1121.43 319.849C1126.21 319.668 1130.97 319.208 1135.7 318.47C1136.27 318.369 1136.9 318.259 1137.63 318.177C1140.78 317.775 1145.11 317.192 1146.26 314.286C1147 312.495 1146.37 310.464 1144.39 307.99L1144.39 307.989Z" fill="#DB3069"/>
<path d="M888.508 231.175C896.766 227.022 903.013 219.738 905.856 210.938C906.093 210.187 905.688 209.386 904.944 209.126C900.638 207.59 896.153 206.604 891.596 206.191C891.154 206.142 890.712 206.305 890.41 206.633C890.107 206.956 889.963 207.399 890.03 207.837C890.876 215.155 889.66 222.567 886.52 229.235C886.295 229.725 886.358 230.295 886.677 230.726C887.003 231.16 887.538 231.378 888.068 231.295C888.219 231.279 888.37 231.236 888.507 231.175L888.508 231.175Z" fill="#DB3069"/>
<path d="M722.843 139.645C698.322 143.853 673.287 147.495 649.032 151.026C624.235 154.637 598.592 158.365 573.531 162.694L538.927 168.663C538.147 168.801 537.616 169.535 537.738 170.317L538.401 174.891C538.771 177.375 539.123 179.851 539.513 182.305C539.636 183.093 540.372 183.64 541.165 183.516C554.006 181.596 566.97 179.299 579.569 177.083C585.426 176.05 591.232 175.026 597.059 174.031C614.69 171.022 632.737 168.332 650.19 165.757C669.734 162.866 689.814 159.891 709.664 156.391C714.537 155.532 719.393 154.639 724.232 153.711L724.231 153.706C724.938 153.576 725.44 152.943 725.408 152.224C725.278 148.397 724.989 144.598 724.531 140.892L724.532 140.897C724.479 140.504 724.267 140.145 723.951 139.91C723.629 139.676 723.232 139.582 722.841 139.646L722.843 139.645Z" fill="#DB3069"/>
<path d="M771.378 181.398C772.152 181.262 772.68 180.534 772.569 179.755C770.994 168.963 769.025 158.067 767.122 147.545C766.298 142.872 765.434 138.212 764.652 133.537C764.525 132.787 763.834 132.258 763.076 132.334C753.6 133.396 744.19 134.945 734.869 136.974L732.37 137.473L732.371 137.478C731.619 137.621 731.109 138.33 731.212 139.09C732.057 145.44 732.465 151.836 732.436 158.241C732.438 158.759 732.707 159.235 733.146 159.507C742.444 165.478 750.205 173.555 755.797 183.082C756.179 183.597 756.826 183.848 757.456 183.731C762.052 182.921 766.751 182.156 771.379 181.409L771.378 181.398Z" fill="#DB3069"/>
<path d="M715.493 93.5817C715.361 92.8911 714.755 92.395 714.052 92.3973C698.786 93.1323 683.646 95.5375 668.903 99.5702C661.595 101.282 654.681 102.898 647.843 104.119C636.956 106.087 626.066 108.065 615.168 110.05C600.943 112.638 586.715 115.21 572.486 117.772C556.831 120.532 540.823 122.958 525.339 125.281L525.334 125.282C493.78 129.413 462.477 135.292 431.572 142.894C431.112 143.017 430.743 143.352 430.583 143.793C426.847 153.86 425.81 169.787 431.169 179.451C431.441 179.943 431.974 180.235 432.533 180.2C449.529 178.752 466.39 176.054 482.985 172.123C490.752 170.489 498.783 168.793 506.702 167.397C513.755 166.153 520.81 164.893 527.883 163.614C544.487 160.634 561.65 157.549 578.462 154.844C598.513 151.62 618.692 148.655 638.213 145.789C665.124 141.837 692.952 137.75 721.724 132.756L722.163 132.547C722.801 132.297 723.18 131.627 723.066 130.949C721.815 123.522 720.202 116.053 718.639 108.813C717.563 103.73 716.469 98.6611 715.494 93.5815L715.493 93.5817Z" fill="#DB3069"/>
<path d="M691.34 542.283C683.35 542.283 676.632 542.059 671.329 541.684C664.683 541.163 658.188 538.772 652.96 536.085C656.616 536.46 660.949 536.829 665.949 537.053C667.59 537.126 669.46 537.204 671.324 537.204C689.392 537.204 711.048 533.621 711.944 533.47L729.715 530.486L711.944 527.277C711.72 527.204 686.928 522.647 666.693 509.657C654.298 501.741 652.953 494.351 653.032 491.365C654.001 485.318 654.527 479.194 654.527 473.22C654.527 432.231 631.382 392.731 589.194 361.293C607.412 321.569 632.798 234.657 624.959 229.58C600.99 213.897 523.86 273.111 494.964 315.299C465.548 306.262 433.662 300.367 400.511 297.825C388.714 296.93 376.694 296.482 364.818 296.482C352.646 296.482 340.402 296.93 328.38 297.898C295.526 300.435 263.943 306.336 234.75 315.294C205.854 273.106 128.796 213.972 104.828 229.654C96.9897 234.805 122.375 321.572 140.522 361.368C98.2616 392.878 75.1149 432.3 75.1149 473.368C75.1149 479.493 75.6358 485.836 76.6827 492.034C76.5316 495.618 74.516 502.415 63.0213 509.732C42.86 522.648 18.0733 527.278 17.7707 527.352L0 530.56L17.7707 533.544C18.6665 533.695 40.3173 537.279 58.3907 537.279C60.2552 537.279 62.1251 537.206 63.7656 537.128C68.7708 536.904 73.0989 536.529 76.7552 536.159C71.526 538.846 65.0312 541.237 58.3859 541.758C53.0837 542.206 46.3651 542.357 38.3752 542.357C26.3544 542.357 15.6045 541.836 15.5259 541.836L5.07279 541.388L13.5103 547.586C14.1821 548.107 30.2343 559.758 44.3489 560.95C42.1823 561.023 39.4948 561.023 36.3593 561.023C30.9844 561.023 26.1301 560.95 26.0572 560.95L16.276 560.726L24.2656 566.627C24.4166 566.778 28.224 569.539 33.8229 572.304C42.3333 576.559 50.2496 578.502 57.0416 578.054C57.3385 578.054 57.6406 577.981 58.0103 577.981L26.1303 582.835L32.7033 587.388C33.3022 587.763 46.6673 596.945 59.8073 597.018H60.1042C61.4479 597.018 62.7916 596.945 64.1354 596.867C60.9271 598.138 57.8646 599.179 55.6979 599.705C45.9896 601.872 35.0886 602.32 35.0152 602.32L22.6194 602.841L33.7444 608.367C34.1923 608.591 44.4215 613.518 67.5671 614.565C72.4942 614.788 83.1711 615.085 98.0311 615.611C152.687 617.33 254.458 620.465 290.818 625.242C291.641 625.393 295.745 626.736 300 628.153C316.651 633.606 347.563 643.757 364.959 643.757C382.355 643.757 413.344 633.601 429.917 628.153C434.245 626.736 438.355 625.393 439.178 625.242C475.615 620.46 577.391 617.325 632.044 615.611C646.904 615.163 657.58 614.788 662.508 614.565C685.654 613.518 695.883 608.518 696.331 608.367L707.456 602.841L695.06 602.393C694.987 602.393 684.086 601.945 674.378 599.778C672.138 599.257 669.148 598.21 665.94 596.94C667.284 597.013 668.628 597.091 669.971 597.091H670.268C683.409 597.018 696.774 587.83 697.372 587.46L703.945 582.908L672.065 578.054C672.362 578.054 672.664 578.127 673.034 578.127C673.633 578.2 674.305 578.2 674.977 578.2C681.471 578.2 688.717 576.184 696.482 572.299C702.008 569.539 705.664 566.846 705.888 566.7L713.878 560.799L703.945 560.95C703.873 560.95 699.018 561.023 693.643 561.023C690.508 561.023 687.893 561.023 685.654 560.95C699.842 559.757 715.82 548.106 716.492 547.586L724.93 541.388L714.477 541.836C714.107 541.836 703.357 542.284 691.337 542.284L691.34 542.283ZM605.173 246.683C610.548 250.193 593.449 314.776 580.533 345.917C582.325 336.657 582.924 327.923 587.627 314.407C578.965 328.068 578.892 326.5 569.257 339.568C577.544 322.765 575.528 321.724 583.82 304.923C573.518 320.527 567.913 324.783 556.492 339.72C565.378 323.22 574.263 306.793 583.148 290.293C572.32 305.528 560.897 320.46 548.877 334.944C556.867 320.908 573.071 294.324 581.132 280.288C573.293 290.668 557.091 313.367 548.804 323.444C555.971 311.647 570.533 287.679 577.7 275.881C567.622 288.574 549.773 313.215 539.023 325.387C548.877 309.48 558.809 293.652 568.815 277.824C556.867 292.308 544.549 306.496 531.705 320.308C542.158 304.777 547.085 297.387 557.617 281.928C545.149 296.043 537.831 301.641 524.467 315.079C533.8 301.865 537.31 296.86 546.789 283.792C533.873 297.756 523.94 306.563 511.847 317.615C531.555 287.599 587.929 235.412 605.175 246.683H605.173ZM461.146 433.803C471.672 433.803 480.188 444.032 480.188 456.652C480.188 469.272 471.677 479.501 461.146 479.501C450.62 479.501 442.105 469.272 442.105 456.652C442.105 444.032 450.621 433.803 461.146 433.803ZM268.653 433.803C279.179 433.803 287.694 444.032 287.694 456.652C287.694 469.272 279.184 479.501 268.653 479.501C258.127 479.501 249.612 469.272 249.612 456.652C249.539 444.032 258.127 433.803 268.653 433.803ZM124.626 246.683C141.877 235.407 198.246 287.672 218.033 317.615C205.939 306.562 196.08 297.755 183.09 283.792C192.575 296.86 196.08 301.86 205.413 315.079C192.049 301.641 184.73 296.037 172.262 281.928C182.866 297.387 187.793 304.699 198.174 320.308C185.331 306.496 172.934 292.308 161.065 277.824C171.07 293.652 181.002 309.48 190.857 325.387C180.029 313.215 162.185 288.575 152.18 275.881C159.346 287.678 173.909 311.647 181.076 323.444C172.789 313.366 156.586 290.663 148.748 280.288C156.81 294.324 172.941 320.908 181.002 334.944C168.981 320.46 157.554 305.528 146.732 290.293C155.617 306.793 164.429 323.299 173.388 339.72C161.888 324.788 156.289 320.532 146.06 304.923C154.346 321.725 152.257 322.767 160.622 339.568C150.992 326.5 150.914 328.068 142.253 314.407C146.956 327.923 147.628 336.657 149.347 345.917C136.352 314.781 119.253 250.193 124.628 246.683H124.626ZM685.813 586.496C681.334 588.584 675.584 590.6 670.058 590.678H669.761C658.116 590.678 640.792 592.397 640.792 592.397C641.688 592.845 663.043 603.673 672.751 605.834C674.246 606.131 675.735 606.433 677.23 606.73C673.048 607.402 667.969 607.923 661.995 608.225C657.141 608.449 646.465 608.746 631.683 609.272C576.877 610.991 474.963 614.126 438.217 618.902C437.024 619.053 434.336 619.949 427.836 622.038C412.68 626.965 381.17 637.344 364.815 637.344C348.46 637.344 316.955 627.042 301.794 622.038C295.372 619.949 292.684 619.053 291.492 618.902C254.757 614.121 152.838 610.913 98.0248 609.272C83.2382 608.824 72.5609 608.449 67.7129 608.225C61.7389 607.928 56.6607 607.402 52.4782 606.73C53.973 606.506 55.4626 606.209 56.9574 605.834C66.6657 603.668 88.0201 592.845 88.9161 592.397C88.9161 592.397 71.6654 590.678 59.9467 590.678H59.6498C54.1238 590.678 48.3738 588.59 43.8952 586.496L70.7752 582.392C81.973 580.673 91.4578 573.579 93.2485 572.163L96.8318 569.251C241.765 556.855 352.418 463.376 345.098 358.398C343.755 339.21 338.526 320.991 330.088 304.038C341.51 303.215 353.161 302.767 364.733 302.767C376.009 302.767 387.431 303.215 398.635 303.96C390.124 320.908 384.895 339.205 383.624 358.392C376.311 463.6 487.493 557.312 632.944 569.325L636.23 572.013C636.23 572.013 636.303 572.085 636.527 572.236C638.319 573.653 647.803 580.674 658.928 582.393L685.813 586.496Z" fill="#DB3069"/>
<path d="M391.033 588.349L390.882 588.5C387.299 592.755 383.116 594.995 378.788 594.995C374.606 594.995 370.575 592.907 367.064 588.948V480.38C377.892 479.484 386.403 471.792 386.403 462.459C386.403 452.527 376.773 469.777 364.897 469.777C353.028 469.777 343.392 452.526 343.392 462.459C343.392 471.792 351.83 479.407 362.731 480.38V588.948C359.22 592.907 355.189 594.995 351.007 594.995C346.679 594.995 342.496 592.755 338.913 588.5L338.762 588.349C338.017 587.453 336.595 587.302 335.627 588.052C334.731 588.797 334.58 590.219 335.33 591.188L335.481 591.339C339.887 596.568 345.335 599.401 350.939 599.401C355.866 599.401 360.794 597.162 364.825 593.052C368.929 597.157 373.783 599.401 378.71 599.401C384.309 599.401 389.762 596.563 394.169 591.339L394.32 591.188C395.065 590.292 394.992 588.875 394.023 588.052C393.195 587.302 391.851 587.453 391.033 588.349H391.033Z" fill="#DB3069"/>
<path d="M237.886 553.256C246.845 546.985 256.329 541.756 266.037 537.876C268.428 536.907 270.818 536.011 273.204 535.261C288.51 530.11 304.49 527.944 320.693 528.912C320.844 528.912 320.917 528.912 321.068 528.84C321.365 528.689 321.516 528.465 321.589 528.168C321.589 527.944 321.516 527.793 321.365 527.569C321.214 527.418 321.068 527.345 320.844 527.345C304.417 526.376 288.292 528.537 272.761 533.767C270.371 534.59 267.907 535.485 265.595 536.454C255.741 540.412 246.105 545.714 237.073 552.058C217.885 565.574 207.209 579.834 207.131 579.985C206.907 580.36 206.98 580.808 207.282 581.105C207.506 581.256 207.803 581.328 208.026 581.177C208.178 581.105 208.25 581.026 208.323 580.953C208.318 580.808 218.849 566.693 237.886 553.256L237.886 553.256Z" fill="#DB3069"/>
<path d="M326.073 539.816C313.677 540.936 301.584 543.847 290.084 548.477C286.5 549.894 282.917 551.54 279.407 553.332C267.761 559.306 256.781 567.217 246.776 576.78C229.828 592.982 221.391 608.738 221.312 608.884C221.088 609.259 221.239 609.706 221.609 609.93C221.833 610.003 222.057 610.081 222.281 609.93C222.432 609.858 222.578 609.706 222.656 609.555C222.729 609.404 231.02 593.873 247.817 577.821C257.671 568.414 268.5 560.57 280.072 554.675C283.504 552.957 287.014 551.316 290.525 549.894C301.874 545.342 313.822 542.425 326.066 541.306C326.139 541.306 326.217 541.306 326.29 541.233C326.587 541.082 326.811 540.785 326.738 540.41C326.894 540.118 326.519 539.743 326.071 539.816L326.073 539.816Z" fill="#DB3069"/>
<path d="M326.513 533.696C309.789 533.92 293.434 537.206 277.982 543.477C277.383 543.701 276.79 543.998 276.191 544.222C263.425 549.597 251.175 557.066 239.827 566.321C220.561 582.075 210.411 597.977 210.332 598.127C210.108 598.502 210.181 598.95 210.556 599.174C210.78 599.325 211.004 599.325 211.301 599.247C211.452 599.174 211.598 599.096 211.676 598.95C211.749 598.799 221.832 583.043 240.946 567.439C252.144 558.257 264.244 550.94 276.936 545.637C277.535 545.413 278.128 545.116 278.727 544.892C294.034 538.694 310.159 535.486 326.665 535.262C326.738 535.262 326.889 535.262 326.962 535.189C327.258 535.038 327.482 534.814 327.482 534.444C327.482 534.22 327.41 534.069 327.258 533.923C326.889 533.767 326.738 533.694 326.514 533.694L326.513 533.696Z" fill="#DB3069"/>
<path d="M492.873 552.069C483.764 545.647 474.206 540.423 464.352 536.465C461.961 535.496 459.57 534.601 457.185 533.778C441.654 528.549 425.45 526.387 409.102 527.356C408.878 527.356 408.727 527.429 408.581 527.58C408.43 527.731 408.357 527.955 408.357 528.179C408.357 528.476 408.581 528.778 408.878 528.851C408.951 528.924 409.102 528.924 409.253 528.924C425.456 527.955 441.436 530.116 456.743 535.273C459.133 536.095 461.524 536.991 463.909 537.887C473.618 541.846 483.097 546.996 492.06 553.267C511.101 566.631 521.628 580.746 521.7 580.892C521.773 581.043 521.924 581.116 521.997 581.116C522.221 581.189 522.518 581.189 522.742 581.043C522.893 580.892 523.039 580.747 523.039 580.523C523.039 580.299 523.039 580.075 522.887 579.924C522.736 579.84 512.137 565.58 492.871 552.069L492.873 552.069Z" fill="#DB3069"/>
<path d="M482.953 576.776C472.948 567.219 461.974 559.38 450.322 553.328C446.89 551.536 443.301 549.896 439.645 548.474C428.223 543.843 416.124 540.932 403.656 539.812C403.208 539.739 402.833 540.109 402.833 540.484C402.833 540.859 402.984 541.156 403.281 541.307C403.354 541.307 403.432 541.38 403.505 541.38C415.75 542.5 427.698 545.411 439.046 549.969C442.557 551.385 446.067 553.031 449.499 554.75C460.999 560.651 471.822 568.49 481.754 577.895C498.557 593.947 506.842 609.479 506.915 609.63C506.988 609.781 507.139 609.927 507.29 610.005C507.514 610.078 507.738 610.078 507.962 610.005C508.337 609.781 508.483 609.333 508.259 608.958C508.337 608.734 499.9 593.051 482.952 576.775L482.953 576.776Z" fill="#DB3069"/>
<path d="M491.02 563.789C479.671 554.529 467.426 547.065 454.656 541.691C454.057 541.467 453.463 541.17 452.864 540.946C437.405 534.675 421.057 531.388 404.333 531.165C404.109 531.165 403.958 531.238 403.812 531.389C403.661 531.54 403.588 531.764 403.588 531.909C403.588 532.206 403.812 532.508 404.109 532.654C404.182 532.654 404.26 532.727 404.406 532.727C420.985 532.951 437.109 536.238 452.343 542.357C452.942 542.581 453.536 542.805 454.135 543.102C466.828 548.404 478.927 555.795 490.125 564.905C509.239 580.509 519.245 596.265 519.395 596.416C519.468 596.567 519.619 596.639 519.77 596.712C519.994 596.785 520.291 596.785 520.442 596.639C520.817 596.416 520.89 595.895 520.666 595.593C520.437 595.452 510.359 579.619 491.021 563.79L491.02 563.789Z" fill="#DB3069"/>
<path d="M328.233 518.616C327.41 518.689 326.816 519.512 326.889 520.48C326.962 521.449 327.561 522.199 328.306 522.199H328.379C329.124 522.126 329.723 521.303 329.723 520.335C329.65 519.361 328.978 518.616 328.233 518.616V518.616Z" fill="#DB3069"/>
<path d="M338.02 533.096C338.843 533.023 339.436 532.2 339.363 531.231C339.29 530.263 338.691 529.513 337.947 529.513H337.874C337.129 529.585 336.53 530.408 336.53 531.377C336.603 532.273 337.275 533.096 338.02 533.096H338.02Z" fill="#DB3069"/>
<path d="M343.766 524.736C344.589 524.663 345.183 523.84 345.11 522.871C345.037 521.903 344.438 521.153 343.693 521.153H343.62C342.876 521.226 342.277 522.048 342.277 523.017C342.423 523.986 343.021 524.736 343.766 524.736H343.766Z" fill="#DB3069"/>
<path d="M338.02 553.029C338.843 552.956 339.436 552.133 339.363 551.165C339.29 550.196 338.691 549.446 337.947 549.446H337.874C337.129 549.519 336.53 550.342 336.53 551.31C336.603 552.284 337.275 553.029 338.02 553.029H338.02Z" fill="#DB3069"/>
<path d="M347.873 543.256C348.618 543.183 349.217 542.36 349.217 541.391C349.144 540.423 348.545 539.673 347.8 539.673H347.727C346.982 539.746 346.383 540.568 346.383 541.537C346.383 542.506 347.055 543.256 347.873 543.256V543.256Z" fill="#DB3069"/>
<path d="M388.046 523.989C388.869 523.989 389.463 523.245 389.541 522.27C389.614 521.302 389.02 520.479 388.197 520.406H388.124C387.38 520.406 386.708 521.151 386.708 522.125C386.703 523.093 387.301 523.916 388.046 523.989H388.046Z" fill="#DB3069"/>
<path d="M397.686 521.149C396.863 521.149 396.27 521.894 396.191 522.868C396.119 523.837 396.712 524.66 397.535 524.733H397.608C398.353 524.733 399.025 523.988 399.025 523.014C399.03 522.045 398.504 521.227 397.686 521.149V521.149Z" fill="#DB3069"/>
<path d="M378.42 531.896C377.675 531.896 377.003 532.641 377.003 533.615C376.93 534.584 377.524 535.406 378.347 535.479H378.42C379.164 535.479 379.836 534.734 379.836 533.76C379.836 532.714 379.242 531.896 378.42 531.896H378.42Z" fill="#DB3069"/>
<path d="M392.966 534.883C393.789 534.883 394.383 534.138 394.461 533.164C394.534 532.195 393.94 531.372 393.117 531.299H393.044C392.3 531.299 391.628 532.044 391.628 533.018C391.623 533.987 392.221 534.81 392.966 534.883H392.966Z" fill="#DB3069"/>
<path d="M382.38 547.056C381.635 547.056 380.963 547.801 380.963 548.775C380.89 549.743 381.484 550.566 382.307 550.639H382.38C383.124 550.639 383.796 549.894 383.796 548.92C383.796 547.952 383.197 547.129 382.38 547.056V547.056Z" fill="#DB3069"/>
<path d="M392.233 547.656C393.056 547.656 393.65 546.911 393.728 545.937C393.801 544.968 393.207 544.145 392.384 544.073H392.311C391.566 544.073 390.894 544.817 390.894 545.791C390.889 546.833 391.488 547.656 392.233 547.656V547.656Z" fill="#DB3069"/>
<path d="M268.66 473.509C276.498 473.509 282.774 465.968 282.774 456.635C282.774 447.302 276.425 439.76 268.66 439.76C260.894 439.76 254.545 447.302 254.545 456.635C254.472 465.895 260.821 473.509 268.66 473.509ZM274.259 446.479C276.571 446.479 278.514 448.718 278.514 451.557C278.514 454.317 276.649 456.635 274.259 456.635C271.946 456.635 270.003 454.395 270.003 451.557C270.003 448.718 271.946 446.479 274.259 446.479Z" fill="#DB3069"/>
<path d="M461.14 473.509C468.978 473.509 475.254 465.968 475.254 456.635C475.254 447.302 468.905 439.76 461.14 439.76C453.301 439.76 447.025 447.302 447.025 456.635C447.03 465.895 453.374 473.509 461.14 473.509ZM466.817 446.479C469.129 446.479 471.072 448.718 471.072 451.557C471.072 454.317 469.207 456.635 466.817 456.635C464.504 456.635 462.561 454.395 462.561 451.557C462.556 448.718 464.426 446.479 466.817 446.479Z" fill="#DB3069"/>
</svg>
