<svg width="549" height="577" viewBox="0 0 549 577" fill="none" xmlns="http://www.w3.org/2000/svg">
<path d="M146.16 353.667C155.644 353.667 163.411 344.406 163.411 333.057C163.411 321.708 155.718 312.448 146.16 312.448C136.676 312.448 128.909 321.708 128.909 333.057C128.909 344.406 136.602 353.667 146.16 353.667ZM151.686 325.74C153.853 325.74 155.566 327.829 155.566 330.37C155.566 332.907 153.847 335.001 151.686 335.001C149.519 335.001 147.806 332.912 147.806 330.37C147.801 327.834 149.519 325.74 151.686 325.74Z" fill="black"/>
<path d="M531.893 496.573C524.352 475.068 529.357 435.271 537.867 408.767C545.185 386.141 548.919 360.907 548.919 333.803C548.919 304.907 544.737 276.756 536.524 250.1C528.461 223.892 516.441 198.955 500.758 176.105C500.013 174.986 499.191 173.866 498.368 172.746C516.737 144.595 531.67 103.606 533.613 72.9913C527.04 76.5017 520.321 79.5643 513.452 82.1736C520.321 79.5591 529.43 67.5376 535.998 64.0283C537.191 46.1843 533.91 31.8456 524.425 25.6483C501.879 10.8616 449.608 53.8723 417.352 94.7163C401.893 84.336 385.393 75.0803 367.847 66.9403C362.545 64.4767 356.649 62.1591 350.899 59.9195C329.841 51.6331 308.039 43.1168 305.055 24.2261L302.07 5.26213L292.732 44.1688L283.549 0.190125L274.664 42.9035L265.779 0.195455L256.596 44.1688L247.19 5.26746L244.206 24.2315C241.221 43.1221 219.414 51.6328 198.362 59.9248C192.685 62.1644 186.716 64.4769 181.414 66.9456C163.867 75.0863 147.288 84.3416 131.908 94.7216C99.6536 53.8776 47.3869 10.8723 24.8349 25.6536C15.3505 31.8515 12.1423 46.1843 13.262 64.0336C19.8349 67.544 28.9447 79.5643 35.8087 82.1789C28.9389 79.5644 22.1473 76.5019 15.6473 72.9967C17.6629 103.611 32.522 144.527 50.8927 172.751C50.0697 173.871 49.3249 174.991 48.502 176.111C32.8193 198.96 20.7993 223.897 12.7367 250.105C4.52306 276.761 0.34079 304.985 0.34079 333.808C0.34079 360.912 4.07518 386.152 11.3929 408.772C19.7574 434.684 24.4607 475.6 17.3669 496.579L8.85133 522.183L30.8047 490L20.5755 527.855L48.1275 504.333L31.1008 537.932L65.2261 520.609L39.0181 552.193L65.5968 536.224C74.7061 530.771 86.5754 527.938 100.914 527.938C114.799 527.938 130.633 530.625 145.565 535.552C156.617 539.208 168.262 544.365 180.658 549.891C208.658 562.36 240.465 576.396 274.737 576.396C309.007 576.396 340.742 562.281 368.815 549.891C381.133 544.438 392.857 539.214 403.909 535.552C418.769 530.625 434.669 527.938 448.559 527.938C462.898 527.938 474.767 530.698 483.877 536.224L510.382 552.203L484.174 520.619L518.299 537.941L501.273 504.343L528.898 527.864L518.669 490.009L541.44 523.384L531.893 496.573ZM499.784 94.64L476.863 145.785C471.186 139.515 465.139 133.389 458.868 127.493L495.081 81.9467L467.305 134.441L499.784 94.64ZM458.716 127.348C456.101 124.957 453.487 122.567 450.799 120.181L485.966 75.9053L458.716 127.348ZM472.383 76.7227L450.356 119.805C446.622 116.597 442.814 113.383 438.856 110.248L472.383 76.7227ZM403.164 305.269C416.008 305.269 426.383 317.738 426.383 333.045C426.383 348.353 416.002 360.821 403.164 360.821C390.32 360.821 379.945 348.353 379.945 333.045C379.945 317.738 390.398 305.269 403.164 305.269ZM146.164 305.269C159.008 305.269 169.383 317.738 169.383 333.045C169.383 348.353 159.002 360.821 146.164 360.821C133.32 360.821 122.945 348.353 122.945 333.045C122.94 317.739 133.32 305.269 146.164 305.269ZM42.076 87.176L74.628 126.973L46.852 74.484L83.8107 121L56.0347 68.5107L92.9933 115.027L69.624 69.256L110.613 110.324C96.4987 121.449 83.5827 133.543 72.0093 146.537L42.076 87.176ZM521.436 452.963C520.691 460.952 520.243 470.884 521.139 480.665L499.712 449.305L515.171 506.499L477.54 474.468L501.134 520.984L455.139 497.687L478.134 525.312C469.623 522.104 459.618 520.458 448.342 520.458C433.706 520.458 416.982 523.296 401.378 528.52C389.956 532.328 378.159 537.557 365.612 543.083C338.284 555.255 307.222 568.995 274.591 568.995C241.888 568.995 210.898 555.255 183.57 543.083C171.028 537.557 159.226 532.255 147.804 528.52C132.2 523.369 115.476 520.458 100.84 520.458C89.5644 520.458 79.5591 522.099 71.0485 525.312L94.0431 497.687L48.0485 520.984L71.6418 474.468L34.0111 506.499L49.4698 449.305L27.8191 480.961C29.3139 463.191 26.8504 441.909 23.1889 424.587C38.7929 431.831 60.3715 435.785 76.2768 435.785C165.356 435.785 230.157 313.107 230.157 161.758C230.157 125.618 226.053 91.1219 218.511 59.5392C230.381 54.0861 241.208 47.2944 247.183 37.2885L251.735 56.2525C252.334 58.7889 271.672 378.586 271.672 378.586C251.662 377.914 235.907 371.195 235.907 388.216C235.907 405.315 251.814 419.352 271.97 420.471V513.283C267.866 517.986 263.084 520.449 258.158 520.449C253.08 520.449 248.08 517.762 243.898 512.757L243.747 512.533C242.851 511.413 241.21 511.262 240.09 512.236C238.971 513.132 238.82 514.772 239.794 515.892L239.945 516.116C245.096 522.241 251.591 525.673 258.237 525.673C264.06 525.673 269.81 522.986 274.663 518.132C279.517 522.986 285.267 525.673 291.09 525.673C297.663 525.673 304.158 522.314 309.382 516.116L309.533 515.892C310.429 514.772 310.278 513.132 309.236 512.236C308.116 511.34 306.476 511.491 305.58 512.533L305.429 512.757C301.174 517.762 296.247 520.449 291.169 520.449C286.242 520.449 281.461 517.986 277.357 513.283L277.346 420.476C297.508 419.356 313.409 405.32 313.409 388.221C313.409 371.195 297.654 377.919 277.644 378.591C277.644 378.591 296.909 58.7912 297.581 56.2579L302.133 37.2939C307.956 47.0751 318.488 53.7939 330.06 59.1685C322.518 90.8245 318.336 125.471 318.336 161.685C318.336 313.031 390.539 435.711 479.696 435.711C495.827 435.711 511.431 431.68 526.065 424.211C523.904 433.623 522.336 443.477 521.435 452.961L521.436 452.963ZM288.409 390.317C288.409 387.031 291.618 384.343 295.576 384.343C299.534 384.343 302.743 387.031 302.743 390.317C302.743 393.604 299.534 396.291 295.576 396.291C291.618 396.291 288.409 393.604 288.409 390.317Z" fill="black"/>
<path d="M403.173 353.667C412.658 353.667 420.424 344.406 420.424 333.057C420.424 321.708 412.731 312.448 403.173 312.448C393.689 312.448 385.923 321.708 385.923 333.057C385.928 344.406 393.693 353.667 403.173 353.667ZM408.699 325.74C411.09 325.292 413.33 326.563 412.58 330.37C412.132 332.907 410.861 335.001 408.699 335.001C406.533 335.001 404.819 332.912 404.819 330.37C404.892 327.834 406.611 326.188 408.699 325.74Z" fill="black"/>
<path d="M232.707 428.707H232.634C231.217 428.78 230.17 430.274 230.243 432.066C230.316 433.785 231.514 435.129 232.858 435.129H232.931C234.347 435.056 235.394 433.561 235.321 431.769C235.17 430.123 234.05 428.707 232.707 428.707V428.707Z" fill="black"/>
<path d="M249.28 444.533H249.353C250.77 444.46 251.817 442.966 251.744 441.174C251.671 439.455 250.473 438.111 249.129 438.111H249.056C247.639 438.184 246.593 439.679 246.665 441.471C246.817 443.19 248.009 444.533 249.28 444.533Z" fill="black"/>
<path d="M260.4 471.187H260.473C261.89 471.114 262.936 469.619 262.864 467.827C262.791 466.109 261.593 464.765 260.249 464.765H260.176C258.759 464.838 257.713 466.333 257.785 468.124C257.858 469.765 259.056 471.187 260.4 471.187Z" fill="black"/>
<path d="M318.427 426.547H318.354C317.01 426.547 315.89 427.963 315.739 429.609C315.666 431.401 316.708 432.896 318.13 432.969H318.203C319.547 432.969 320.666 431.552 320.817 429.906C320.89 428.114 319.843 426.62 318.427 426.547V426.547Z" fill="black"/>
<path d="M299.16 432.96H299.087C297.743 432.96 296.623 434.377 296.473 436.023C296.4 437.814 297.441 439.309 298.863 439.382H298.936C300.28 439.382 301.4 437.965 301.551 436.319C301.551 434.528 300.504 433.033 299.16 432.96Z" fill="black"/>
<path d="M306.32 460.44H306.247C304.903 460.44 303.783 461.857 303.633 463.503C303.56 465.294 304.601 466.789 306.023 466.862H306.096C307.44 466.862 308.56 465.445 308.711 463.799C308.711 462.013 307.669 460.518 306.32 460.44Z" fill="black"/>
<path d="M212.173 438.853C212.47 438.853 212.772 438.853 212.996 438.702C213.668 438.405 214.189 437.734 214.189 437.062C214.189 436.541 214.038 436.015 213.741 435.645C213.366 435.27 212.918 435.046 212.397 434.973C171.856 432.582 131.908 437.958 93.528 450.952C87.6269 452.967 81.6582 455.134 75.7573 457.525L77.174 461.108C82.9969 458.717 88.9709 456.556 94.8713 454.535C132.726 441.842 172.226 436.54 212.174 438.852L212.173 438.853Z" fill="black"/>
<path d="M225.533 465.893C194.845 468.732 164.981 475.899 136.679 487.399C127.793 490.982 118.981 495.013 110.397 499.492L112.262 502.852C120.699 498.524 129.361 494.565 138.095 490.982C166.095 479.706 195.59 472.539 225.902 469.779C226.126 469.779 226.277 469.706 226.423 469.628C227.167 469.331 227.694 468.508 227.615 467.686C227.548 466.639 226.579 465.821 225.532 465.894L225.533 465.893Z" fill="black"/>
<path d="M226.653 450.813C185.289 451.412 144.893 459.548 106.664 475.007C105.169 475.606 103.68 476.199 102.258 476.871L103.898 480.382C105.393 479.783 106.81 479.189 108.305 478.59C146.086 463.355 185.955 455.293 226.799 454.773C227.023 454.773 227.247 454.7 227.471 454.621C228.216 454.325 228.664 453.575 228.664 452.83C228.664 452.309 228.44 451.861 228.065 451.486C227.622 450.965 227.174 450.814 226.653 450.814L226.653 450.813Z" fill="black"/>
<path d="M336.933 435.053C336.412 435.053 335.965 435.277 335.59 435.725C335.215 436.1 335.069 436.621 335.142 437.142C335.215 437.887 335.662 438.559 336.334 438.783C336.631 438.855 336.855 438.934 337.157 438.934C377.105 436.621 416.605 441.845 454.46 454.616C460.361 456.632 466.33 458.799 472.157 461.189L473.574 457.606C467.751 455.215 461.704 453.054 455.803 451.033C417.423 438.043 377.402 432.664 336.934 435.054L336.933 435.053Z" fill="black"/>
<path d="M323.8 465.893C322.753 465.82 321.784 466.565 321.711 467.612C321.639 468.435 322.159 469.253 322.904 469.555C323.055 469.628 323.279 469.706 323.425 469.706C353.737 472.466 383.232 479.638 411.232 490.908C419.966 494.419 428.628 498.45 437.065 502.778L438.93 499.419C430.341 495.013 421.534 490.981 412.648 487.325C384.356 475.971 354.414 468.732 323.799 465.893L323.8 465.893Z" fill="black"/>
<path d="M325.213 444.533C324.693 444.533 324.245 444.757 323.87 445.054C323.495 445.429 323.271 445.877 323.271 446.398C323.271 447.221 323.719 447.893 324.463 448.19C324.687 448.263 324.911 448.341 325.135 448.341C366.053 448.94 405.927 456.929 443.63 472.158C445.125 472.757 446.541 473.351 448.036 473.95L449.677 470.439C448.182 469.84 446.692 469.168 445.271 468.575C406.973 453.268 366.583 445.132 325.213 444.533L325.213 444.533Z" fill="black"/>
</svg>
