<svg width="1262" height="577" viewBox="0 0 1262 577" fill="none" xmlns="http://www.w3.org/2000/svg">
<path d="M145.819 353.477C155.304 353.477 163.07 344.216 163.07 332.867C163.07 321.518 155.377 312.258 145.819 312.258C136.335 312.258 128.569 321.518 128.569 332.867C128.569 344.216 136.261 353.477 145.819 353.477ZM151.345 325.55C153.512 325.55 155.225 327.638 155.225 330.18C155.225 332.717 153.507 334.81 151.345 334.81C149.179 334.81 147.465 332.722 147.465 330.18C147.46 327.644 149.179 325.55 151.345 325.55Z" fill="#DB3069"/>
<path d="M531.553 496.383C524.011 474.878 529.016 435.081 537.527 408.577C544.844 385.951 548.579 360.717 548.579 333.613C548.579 304.717 544.396 276.566 536.183 249.91C528.12 223.702 516.1 198.765 500.417 175.915C499.673 174.795 498.85 173.676 498.027 172.556C516.396 144.405 531.329 103.416 533.272 72.8012C526.699 76.3116 519.98 79.3741 513.111 81.9835C519.981 79.3689 529.089 67.3475 535.657 63.8381C536.85 45.9941 533.569 31.6555 524.084 25.4581C501.538 10.6715 449.267 53.6821 417.011 94.5261C401.553 84.1459 385.053 74.8901 367.506 66.7501C362.204 64.2865 356.308 61.9689 350.558 59.7293C329.501 51.4429 307.698 42.9267 304.714 24.036L301.729 5.072L292.391 43.9787L283.209 0L274.323 42.7133L265.438 0.0053304L256.255 43.9787L246.849 5.07733L243.865 24.0413C240.88 42.932 219.073 51.4427 198.021 59.7347C192.344 61.9743 186.375 64.2868 181.073 66.7555C163.526 74.8961 146.947 84.1515 131.567 94.5315C99.3128 53.6875 47.0461 10.6821 24.4941 25.4635C15.0097 31.6613 11.8015 45.9941 12.9212 63.8435C19.4941 67.3539 28.6039 79.3741 35.4679 81.9888C28.5981 79.3743 21.8065 76.3117 15.3065 72.8065C17.3221 103.421 32.1812 144.337 50.5519 172.561C49.7289 173.681 48.9841 174.801 48.1612 175.921C32.4785 198.77 20.4585 223.707 12.3959 249.915C4.18227 276.571 0 304.795 0 333.618C0 360.722 3.73439 385.962 11.0521 408.582C19.4167 434.494 24.1199 475.41 17.0261 496.389L8.51054 521.993L30.4639 489.81L20.2347 527.665L47.7867 504.143L30.76 537.742L64.8853 520.419L38.6773 552.003L65.256 536.034C74.3653 530.581 86.2347 527.747 100.573 527.747C114.459 527.747 130.292 530.435 145.224 535.362C156.276 539.018 167.921 544.175 180.317 549.701C208.317 562.169 240.124 576.206 274.396 576.206C308.667 576.206 340.401 562.091 368.475 549.701C380.792 544.248 392.516 539.024 403.568 535.362C418.428 530.435 434.328 527.747 448.219 527.747C462.557 527.747 474.427 530.508 483.536 536.034L510.041 552.013L483.833 520.429L517.959 537.751L500.932 504.153L528.557 527.674L518.328 489.819L541.099 523.194L531.553 496.383ZM499.443 94.4499L476.522 145.595C470.845 139.324 464.798 133.199 458.527 127.303L494.74 81.7565L466.965 134.251L499.443 94.4499ZM458.375 127.158C455.761 124.767 453.146 122.377 450.459 119.991L485.625 75.7152L458.375 127.158ZM472.042 76.5325L450.015 119.615C446.281 116.407 442.474 113.193 438.515 110.058L472.042 76.5325ZM402.823 305.079C415.667 305.079 426.042 317.548 426.042 332.855C426.042 348.162 415.662 360.631 402.823 360.631C389.979 360.631 379.605 348.162 379.605 332.855C379.605 317.548 390.058 305.079 402.823 305.079ZM145.823 305.079C158.667 305.079 169.042 317.548 169.042 332.855C169.042 348.162 158.662 360.631 145.823 360.631C132.979 360.631 122.605 348.162 122.605 332.855C122.599 317.549 132.979 305.079 145.823 305.079ZM41.7352 86.9859L74.2872 126.783L46.5112 74.2939L83.4699 120.81L55.6939 68.3205L92.6525 114.837L69.2832 69.0659L110.273 110.134C96.1579 121.259 83.2419 133.353 71.6685 146.347L41.7352 86.9859ZM521.095 452.773C520.35 460.762 519.903 470.694 520.798 480.475L499.372 449.115L514.83 506.309L477.2 474.278L500.793 520.794L454.798 497.497L477.793 525.122C469.283 521.914 459.277 520.268 448.001 520.268C433.365 520.268 416.641 523.106 401.037 528.33C389.615 532.138 377.818 537.367 365.272 542.893C337.944 555.065 306.881 568.805 274.25 568.805C241.548 568.805 210.557 555.065 183.229 542.893C170.687 537.367 158.885 532.065 147.464 528.33C131.86 523.179 115.136 520.268 100.5 520.268C89.2237 520.268 79.2183 521.908 70.7077 525.122L93.7023 497.497L47.7077 520.794L71.301 474.278L33.6703 506.309L49.129 449.115L27.4783 480.771C28.9731 463.001 26.5096 441.719 22.8481 424.397C38.4521 431.641 60.0307 435.594 75.9361 435.594C165.015 435.594 229.816 312.917 229.816 161.568C229.816 125.428 225.712 90.9317 218.17 59.3491C230.04 53.896 240.868 47.1043 246.842 37.0984L251.394 56.0624C251.993 58.5988 271.332 378.396 271.332 378.396C251.321 377.724 235.566 371.005 235.566 388.026C235.566 405.125 251.473 419.162 271.629 420.281V513.093C267.525 517.796 262.744 520.259 257.817 520.259C252.739 520.259 247.739 517.572 243.557 512.567L243.406 512.343C242.51 511.223 240.87 511.072 239.75 512.046C238.63 512.942 238.479 514.582 239.453 515.702L239.604 515.926C244.755 522.051 251.25 525.483 257.896 525.483C263.719 525.483 269.469 522.796 274.322 517.942C279.177 522.796 284.927 525.483 290.749 525.483C297.322 525.483 303.817 522.124 309.041 515.926L309.192 515.702C310.088 514.582 309.937 512.942 308.895 512.046C307.776 511.15 306.135 511.301 305.239 512.343L305.088 512.567C300.833 517.572 295.906 520.259 290.828 520.259C285.901 520.259 281.12 517.796 277.016 513.093L277.006 420.286C297.167 419.166 313.068 405.13 313.068 388.031C313.068 371.005 297.314 377.729 277.303 378.401C277.303 378.401 296.568 58.6011 297.24 56.0677L301.792 37.1037C307.615 46.8849 318.147 53.6037 329.719 58.9784C322.178 90.6344 317.995 125.281 317.995 161.494C317.995 312.841 390.198 435.521 479.355 435.521C495.486 435.521 511.09 431.49 525.724 424.021C523.563 433.433 521.995 443.286 521.094 452.77L521.095 452.773ZM288.069 390.127C288.069 386.841 291.277 384.153 295.235 384.153C299.194 384.153 302.402 386.841 302.402 390.127C302.402 393.414 299.194 396.101 295.235 396.101C291.277 396.101 288.069 393.414 288.069 390.127Z" fill="#DB3069"/>
<path d="M402.833 353.477C412.317 353.477 420.083 344.216 420.083 332.867C420.083 321.518 412.391 312.258 402.833 312.258C393.348 312.258 385.582 321.518 385.582 332.867C385.587 344.216 393.353 353.477 402.833 353.477ZM408.359 325.55C410.749 325.102 412.989 326.373 412.239 330.18C411.791 332.717 410.52 334.81 408.359 334.81C406.192 334.81 404.478 332.722 404.478 330.18C404.551 327.644 406.27 325.998 408.359 325.55Z" fill="#DB3069"/>
<path d="M232.366 428.517H232.293C230.876 428.589 229.829 430.084 229.902 431.876C229.975 433.595 231.173 434.938 232.517 434.938H232.59C234.006 434.865 235.053 433.371 234.98 431.579C234.829 429.933 233.71 428.517 232.366 428.517V428.517Z" fill="#DB3069"/>
<path d="M248.939 444.343H249.012C250.429 444.27 251.476 442.775 251.403 440.984C251.33 439.265 250.132 437.921 248.788 437.921H248.715C247.299 437.994 246.252 439.489 246.325 441.281C246.476 442.999 247.668 444.343 248.939 444.343Z" fill="#DB3069"/>
<path d="M260.059 470.997H260.132C261.549 470.924 262.596 469.429 262.523 467.637C262.45 465.918 261.252 464.575 259.908 464.575H259.835C258.419 464.648 257.372 466.142 257.445 467.934C257.518 469.575 258.715 470.997 260.059 470.997Z" fill="#DB3069"/>
<path d="M318.086 426.357H318.013C316.669 426.357 315.549 427.773 315.398 429.419C315.325 431.211 316.367 432.705 317.789 432.778H317.862C319.206 432.778 320.326 431.362 320.477 429.716C320.549 427.924 319.503 426.429 318.086 426.357V426.357Z" fill="#DB3069"/>
<path d="M298.819 432.77H298.746C297.403 432.77 296.283 434.187 296.132 435.832C296.059 437.624 297.1 439.119 298.522 439.192H298.595C299.939 439.192 301.059 437.775 301.21 436.129C301.21 434.337 300.163 432.843 298.819 432.77Z" fill="#DB3069"/>
<path d="M305.979 460.25H305.906C304.563 460.25 303.443 461.667 303.292 463.312C303.219 465.104 304.26 466.599 305.682 466.672H305.755C307.099 466.672 308.219 465.255 308.37 463.609C308.37 461.823 307.328 460.328 305.979 460.25Z" fill="#DB3069"/>
<path d="M211.833 438.663C212.129 438.663 212.432 438.663 212.655 438.512C213.327 438.215 213.848 437.543 213.848 436.872C213.848 436.351 213.697 435.825 213.4 435.455C213.025 435.08 212.577 434.856 212.057 434.783C171.515 432.392 131.567 437.767 93.1872 450.762C87.2861 452.777 81.3174 454.944 75.4165 457.335L76.8332 460.918C82.6561 458.527 88.6301 456.366 94.5305 454.345C132.385 441.652 171.885 436.35 211.833 438.662L211.833 438.663Z" fill="#DB3069"/>
<path d="M225.193 465.703C194.505 468.542 164.641 475.708 136.338 487.209C127.452 490.792 118.641 494.823 110.057 499.302L111.921 502.662C120.359 498.333 129.02 494.375 137.754 490.792C165.754 479.516 195.249 472.349 225.561 469.589C225.785 469.589 225.936 469.516 226.082 469.438C226.827 469.141 227.353 468.318 227.275 467.495C227.207 466.449 226.238 465.631 225.191 465.704L225.193 465.703Z" fill="#DB3069"/>
<path d="M226.313 450.623C184.949 451.222 144.553 459.358 106.323 474.817C104.828 475.415 103.339 476.009 101.917 476.681L103.558 480.191C105.052 479.592 106.469 478.999 107.964 478.4C145.745 463.165 185.615 455.102 226.459 454.582C226.682 454.582 226.906 454.509 227.13 454.431C227.875 454.134 228.323 453.384 228.323 452.64C228.323 452.119 228.099 451.671 227.724 451.296C227.281 450.775 226.834 450.624 226.313 450.624L226.313 450.623Z" fill="#DB3069"/>
<path d="M336.593 434.863C336.072 434.863 335.624 435.087 335.249 435.535C334.874 435.91 334.728 436.431 334.801 436.952C334.874 437.697 335.322 438.368 335.994 438.592C336.29 438.665 336.514 438.743 336.817 438.743C376.765 436.431 416.265 441.655 454.119 454.426C460.02 456.442 465.989 458.608 471.817 460.999L473.233 457.416C467.41 455.025 461.363 452.864 455.463 450.843C417.083 437.853 377.061 432.473 336.593 434.864L336.593 434.863Z" fill="#DB3069"/>
<path d="M323.459 465.703C322.412 465.63 321.444 466.375 321.371 467.422C321.298 468.245 321.819 469.063 322.563 469.365C322.714 469.438 322.938 469.516 323.084 469.516C353.396 472.276 382.891 479.448 410.891 490.718C419.625 494.229 428.287 498.26 436.724 502.588L438.589 499.229C430 494.823 421.193 490.791 412.307 487.135C384.015 475.781 354.073 468.542 323.458 465.703L323.459 465.703Z" fill="#DB3069"/>
<path d="M324.873 444.343C324.352 444.343 323.904 444.567 323.529 444.864C323.154 445.239 322.93 445.687 322.93 446.208C322.93 447.031 323.378 447.703 324.123 447.999C324.346 448.072 324.57 448.151 324.794 448.151C365.712 448.749 405.586 456.739 443.289 471.968C444.784 472.567 446.201 473.161 447.695 473.76L449.336 470.249C447.841 469.65 446.352 468.978 444.93 468.385C406.632 453.078 366.242 444.942 324.872 444.343L324.873 444.343Z" fill="#DB3069"/>
<path d="M888.668 165.054L883.668 164.997H883.673C883.277 164.997 882.902 165.153 882.626 165.434C882.35 165.721 882.199 166.106 882.215 166.507L882.34 170.242C882.595 177.825 882.866 185.706 882.808 193.414L882.803 193.408C882.798 193.804 882.96 194.184 883.241 194.46C883.512 194.747 883.897 194.903 884.293 194.877L886.715 194.82C896.131 194.445 905.559 194.549 914.96 195.138H915.08C915.439 195.132 915.788 195.002 916.059 194.757C916.356 194.481 916.528 194.101 916.538 193.7C916.72 183.575 917.2 174.56 918.012 166.159V166.164C918.049 165.732 917.898 165.304 917.596 164.997C917.293 164.679 916.866 164.523 916.429 164.565C907.21 165.258 897.793 165.153 888.669 165.054L888.668 165.054Z" fill="#DB3069"/>
<path d="M924.788 210.694C935.095 210.965 943.455 211.621 950.851 212.204C958.017 212.788 964.158 213.21 970.211 213.225H973.95H975.794L980.122 213.032H980.127C982.815 212.949 985.492 212.678 988.143 212.22C992.2 211.819 995.992 210.027 998.888 207.157C1000.92 204.97 1002.25 202.22 1002.7 199.267V199.199C1002.85 198.069 1002.78 196.918 1002.5 195.814C1002.42 195.538 1002.27 195.288 1002.06 195.095C1001.64 194.735 1001.21 194.397 1000.76 194.084C996.945 191.683 992.596 190.262 988.101 189.939C979.435 188.939 970.695 188.704 961.987 189.235C956.466 189.491 950.377 189.913 943.377 190.517C939.955 190.814 936.377 191.142 932.591 191.501L929.627 191.782C928.06 191.928 926.471 192.079 924.804 192.225V192.23C924.054 192.293 923.481 192.913 923.466 193.657C923.398 198.86 923.367 204.032 923.367 209.231V209.236C923.367 210.028 923.997 210.679 924.789 210.694L924.788 210.694Z" fill="#DB3069"/>
<path d="M603.601 146.841H603.679C612.143 146.419 620.778 146.153 629.346 146.054C630.143 146.049 630.789 145.393 630.783 144.596V143.096C630.825 138.054 630.867 132.341 627.419 129.919C624.846 128.481 621.726 128.44 619.112 129.804C611.867 132.533 605.888 137.841 602.32 144.706C602.08 145.159 602.096 145.7 602.361 146.133C602.622 146.57 603.096 146.836 603.606 146.836L603.601 146.841Z" fill="#DB3069"/>
<path d="M923.588 251.587C923.854 251.863 924.223 252.025 924.609 252.035C937.484 252.264 950.343 252.619 963.213 252.973C982.677 253.514 1002.8 254.072 1022.62 254.139V254.145C1023.34 254.139 1023.96 253.613 1024.07 252.9C1028.4 224.473 1032.14 194.291 1026.13 165.244C1025.99 164.572 1025.41 164.093 1024.72 164.077C1012.09 163.848 999.286 164.187 986.906 164.509C966.808 165.39 946.672 165.171 926.6 163.848C926.209 163.796 925.818 163.905 925.516 164.155C925.22 164.405 925.037 164.77 925.022 165.161C924.36 171.931 923.943 177.994 923.73 183.63H923.735C923.714 184.047 923.876 184.453 924.178 184.739C924.475 185.031 924.886 185.177 925.303 185.14C926.511 185.052 927.735 184.942 928.944 184.838L942.886 183.729C949.61 183.25 955.99 183.01 961.85 183.01C970.991 182.802 980.121 183.781 989.006 185.927C993.277 186.89 997.214 188.968 1000.41 191.953C1000.54 192.104 1000.71 192.218 1000.89 192.296L1001.27 192.458V192.463C1001.5 192.552 1001.72 192.656 1001.95 192.776C1002.86 193.333 1003.62 194.114 1004.14 195.046C1004.81 196.302 1005.2 197.677 1005.31 199.093C1005.5 202.864 1004.37 206.578 1002.1 209.593C1000.67 211.567 998.84 213.218 996.73 214.437C994.376 215.76 991.85 216.739 989.22 217.354C986.361 218.031 983.454 218.505 980.527 218.77L975.579 219.198C974.517 219.281 973.298 219.307 972.111 219.338L970.236 219.39C962.809 219.703 954.694 219.213 945.277 218.651C938.819 218.265 932.131 217.869 924.892 217.682H924.85V217.677C924.47 217.677 924.105 217.828 923.834 218.093C923.548 218.369 923.392 218.75 923.392 219.145C923.454 228.51 923.475 239.561 923.162 250.505C923.147 250.906 923.303 251.302 923.59 251.589L923.588 251.587Z" fill="#DB3069"/>
<path d="M1079.05 188.014C1079.28 188.509 1079.77 188.837 1080.32 188.853H1081.43C1095.14 188.853 1100.99 178.556 1106.65 168.593C1111.01 160.926 1115.5 152.999 1123.62 149.65V149.655C1124.31 149.369 1124.66 148.613 1124.46 147.905C1124.09 146.16 1122.79 144.764 1121.08 144.27C1116.48 143.061 1109.49 149.129 1102.61 155.843C1101.73 156.707 1101.07 157.348 1100.76 157.593C1096.12 161.764 1090.53 164.744 1084.49 166.285C1078.58 167.223 1072.54 167.04 1066.7 165.744C1066.07 165.587 1065.42 165.884 1065.12 166.462C1064.81 167.02 1064.9 167.712 1065.35 168.176C1070.96 174.004 1075.59 180.702 1079.05 188.015L1079.05 188.014Z" fill="#DB3069"/>
<path d="M658.015 200.481C657.994 199.689 657.348 199.064 656.556 199.069H650.301C645.197 199.126 640.134 199.283 635.036 199.444H634.416V199.439C633.999 199.46 633.614 199.647 633.348 199.97C633.083 200.288 632.963 200.705 633.02 201.116C634.603 211.767 643.124 211.819 650.645 211.861C652.312 211.861 653.999 211.861 655.656 211.991V211.986C656.057 212.033 656.458 212.054 656.859 212.059C657.244 212.054 657.619 211.903 657.895 211.626C658.171 211.35 658.322 210.975 658.317 210.59C658.317 208.257 658.213 205.923 658.13 203.59L658.015 200.481Z" fill="#DB3069"/>
<path d="M883.415 158.054L888.862 158.106C899.764 158.439 910.669 158.122 921.529 157.153C922.112 157.012 922.493 157.085 922.878 156.929V156.934C923.342 156.768 923.842 156.721 924.331 156.799C945.17 158.294 966.076 158.554 986.946 157.585C1000.68 157.21 1014.87 156.825 1028.84 157.195C1030.56 157.195 1031.99 158.523 1032.12 160.242C1032.16 160.549 1032.12 160.617 1032.27 160.794C1039.27 191.564 1035.35 224.048 1031.14 252.1C1031.07 252.564 1031.23 253.027 1031.56 253.356C1031.83 253.626 1032.2 253.777 1032.58 253.777C1032.66 253.783 1032.74 253.783 1032.82 253.777C1036.46 253.158 1040 252.007 1043.32 250.361C1047.88 248.126 1052.04 245.126 1055.61 241.491C1060.78 236.376 1064.4 229.908 1066.07 222.824C1066.83 218.97 1067.04 215.027 1066.68 211.111C1066.62 210.507 1066.6 209.902 1066.62 209.298C1066.99 209.793 1067.33 210.309 1067.64 210.845C1069.32 214.007 1070.16 217.543 1070.11 221.121C1070.12 221.579 1070.34 222.001 1070.71 222.272C1071.08 222.538 1071.55 222.621 1071.99 222.491C1072.57 222.314 1073.12 222.137 1073.58 221.965L1073.57 221.97C1073.73 221.902 1073.87 221.819 1074 221.71C1074.12 221.606 1074.25 221.517 1074.39 221.444C1074.7 221.288 1074.95 221.022 1075.08 220.699C1084.32 198.673 1063.91 172.033 1045.64 161.262L1045.64 161.267C1044.48 160.673 1043.83 159.413 1044.01 158.121C1044.03 157.97 1044.03 157.814 1044.01 157.663C1043.51 155.158 1043.15 152.627 1042.95 150.08C1042.89 149.361 1042.32 148.798 1041.6 148.746C1026.83 147.725 1011.85 148.022 997.352 148.319C982.95 148.611 968.029 148.903 953.404 147.892C950.273 147.668 947.034 147.392 943.727 147.106C923.467 145.356 900.508 143.392 882.711 153.335V153.34C882.247 153.595 881.966 154.085 881.966 154.611C881.966 155.33 881.966 156.012 882.002 156.694H881.997C882.054 157.444 882.664 158.028 883.414 158.054L883.415 158.054Z" fill="#DB3069"/>
<path d="M1060.11 325.974C1058.89 325.495 1057.78 324.787 1056.83 323.891C1056.45 323.537 1055.9 323.412 1055.4 323.568C1054.91 323.724 1054.54 324.13 1054.42 324.641C1053.91 328.708 1052.32 332.568 1049.81 335.807C1047.3 339.052 1043.96 341.557 1040.14 343.063C1027.02 347.594 1012.81 347.896 999.503 343.927C993.878 342.38 989.227 338.417 986.805 333.104C981.644 321.214 988.066 303.938 992.352 294.698C992.561 294.255 992.529 293.739 992.274 293.323C992.019 292.906 991.576 292.646 991.087 292.625L985.196 292.416C979.764 292.234 974.633 292.062 970.076 291.677C968.993 291.578 967.904 291.468 966.831 291.349C965.758 291.234 964.612 291.114 963.498 291.015H963.503C962.972 290.974 962.461 291.224 962.159 291.661C961.863 292.109 961.831 292.682 962.086 293.156C964.758 298.27 966.639 303.765 967.659 309.448C968.102 311.781 968.456 314.391 968.826 317.146C970.191 327.24 971.743 338.682 978.43 345.239C987.706 354.312 1002.63 356.505 1016.98 356.505C1021.27 356.505 1025.51 356.312 1029.53 356.046C1046.83 354.88 1057.25 342.01 1065.16 329.557C1065.41 329.166 1065.46 328.677 1065.3 328.245C1065.12 327.812 1064.76 327.484 1064.31 327.364C1062.88 326.995 1061.48 326.531 1060.11 325.974L1060.11 325.974Z" fill="#DB3069"/>
<path d="M678.201 199.001L666.43 199.037C666.035 199.032 665.654 199.193 665.378 199.475C665.102 199.756 664.956 200.141 664.972 200.537C665.014 201.803 665.055 203.063 665.108 204.324C665.196 206.495 665.274 208.657 665.29 210.829C665.29 210.922 665.238 211.287 665.238 211.381H665.233C665.233 212.141 665.816 212.771 666.576 212.834C670.311 213.131 674.066 213.417 677.826 213.626H677.904C678.701 213.631 679.352 212.99 679.363 212.188C679.404 209.662 679.477 207.141 679.55 204.605L679.66 200.48V200.485C679.665 200.089 679.519 199.709 679.243 199.428C678.967 199.146 678.592 198.985 678.201 198.985L678.201 199.001Z" fill="#DB3069"/>
<path d="M1098.8 254.507C1099.09 246.242 1095.96 238.221 1090.15 232.341C1086.95 228.898 1082.32 227.169 1077.65 227.674C1077.22 227.726 1076.78 227.71 1076.35 227.617C1075.98 227.549 1075.59 227.632 1075.28 227.851C1073.42 229.033 1071.43 229.992 1069.35 230.705C1068.94 230.861 1068.61 231.19 1068.47 231.606C1066.7 236.804 1063.89 241.585 1060.2 245.658C1056.37 250.064 1051.73 253.7 1046.54 256.356C1040.53 259.304 1033.97 260.955 1027.29 261.2C1026.7 261.2 1026.2 261.2 1025.58 261.137C1003.65 261.075 982.509 260.471 962.066 259.893C948.65 259.507 935.233 259.127 921.618 258.893C921.42 258.887 921.222 258.924 921.035 258.997C919.93 259.408 918.712 259.393 917.618 258.95C917.43 258.872 917.233 258.83 917.035 258.83C912.597 258.768 908.118 258.731 903.619 258.7C903.171 258.7 902.744 258.903 902.468 259.257C902.186 259.611 902.093 260.075 902.202 260.507C902.452 261.533 902.707 262.559 902.91 263.611C904.504 271.195 905.65 276.726 915.66 278.273C921.415 279.158 927.244 280.023 933.046 280.84C945.061 282.502 957.332 283.57 969.212 284.596C973.629 284.981 978.046 285.361 982.473 285.762C987.046 286.179 991.806 286.413 996.822 286.668C1012.54 287.45 1028.81 288.262 1041.74 294.596H1041.73C1048.6 297.179 1054.14 302.413 1057.1 309.117C1060.74 320.528 1069.35 322.211 1078.95 322.211C1079.91 322.211 1080.87 322.211 1081.86 322.164L1081.87 322.169C1082.55 322.153 1083.13 321.669 1083.27 321.002C1084.75 310.601 1085.01 300.065 1084.04 289.606C1083.12 279.367 1083.35 269.054 1084.74 258.866C1084.7 257.908 1085.05 256.976 1085.71 256.278C1086.35 255.715 1087.19 255.418 1088.05 255.444C1091.14 255.476 1094.23 255.606 1097.23 255.835C1097.61 255.871 1097.99 255.752 1098.29 255.502C1098.59 255.252 1098.77 254.892 1098.8 254.507L1098.8 254.507Z" fill="#DB3069"/>
<path d="M1260.13 441.307C1258.94 439.026 1257.61 436.818 1256.17 434.688C1247.47 421.406 1240.08 407.318 1234.1 392.609C1230.77 384.901 1227.77 376.942 1224.87 369.24C1215.69 344.844 1206.2 319.656 1185.07 300.906L1185.07 300.912C1159.83 277.412 1126.97 263.786 1092.5 262.526C1091.76 262.5 1091.11 263.042 1091 263.787C1089.99 273.25 1089.88 282.787 1090.69 292.271C1091.44 301.218 1091.38 310.213 1090.54 319.156C1090.49 319.557 1090.61 319.963 1090.88 320.276C1091.14 320.588 1091.52 320.771 1091.94 320.791C1109.94 321.515 1122.47 345.698 1125.88 353.089C1131.69 365.755 1135.28 379.323 1136.51 393.203C1137.03 406.281 1135.86 419.37 1133.01 432.141C1132.24 436.5 1131.45 440.891 1130.79 445.359C1130.69 446.094 1131.14 446.797 1131.86 446.99C1134.99 447.813 1138.12 448.469 1141.15 448.953C1141.56 449.021 1141.98 448.906 1142.31 448.641C1142.62 448.375 1142.82 447.99 1142.84 447.573C1143.22 437.865 1144.4 428.828 1145.45 420.865C1145.9 417.365 1146.35 413.954 1146.71 410.698L1146.7 410.693C1148.23 399.339 1148.3 387.833 1146.93 376.459C1146.5 374.084 1146.07 371.745 1145.62 369.459C1145.12 367.219 1144.49 365.011 1143.72 362.849C1142.43 358.839 1140.9 354.907 1139.15 351.068C1136.29 344.776 1132.76 338.818 1128.6 333.303C1125.53 329.287 1121.97 325.667 1118.01 322.522C1115.28 320.485 1112.35 318.746 1109.26 317.329C1108.74 317.115 1108.27 316.891 1107.82 316.688C1107.24 316.407 1106.65 316.152 1106.07 315.943H1105.99H1106.19C1107.08 316.001 1107.97 316.131 1108.84 316.329L1109.62 316.475H1109.62C1113.07 317.272 1116.37 318.594 1119.42 320.402C1123.99 323.23 1128.12 326.714 1131.67 330.745C1136.49 336.225 1140.59 342.303 1143.85 348.828C1145.87 352.797 1147.64 356.891 1149.15 361.078C1150.02 363.349 1150.75 365.672 1151.35 368.026L1153 375.932C1154.75 387.698 1154.89 399.646 1153.4 411.454C1153.03 415.162 1152.57 418.86 1152.09 422.641C1151.08 430.662 1150.03 438.974 1149.71 448.61C1149.69 449.397 1150.29 450.058 1151.07 450.11C1154.66 450.36 1158.31 450.465 1161.97 450.465C1171.22 450.465 1180.63 449.798 1189.78 449.152H1189.78C1203.72 447.751 1217.74 447.558 1231.71 448.569L1235.47 449.001C1240.21 449.652 1244.98 450.027 1249.76 450.121C1250.34 450.121 1250.98 450.121 1251.71 450.168C1254.88 450.319 1259.25 450.496 1260.89 447.834C1261.93 446.199 1261.66 444.09 1260.13 441.308L1260.13 441.307Z" fill="#DB3069"/>
<path d="M1021.48 321.227C1030.34 318.571 1037.75 312.483 1042.08 304.31C1042.44 303.612 1042.18 302.753 1041.5 302.367C1037.52 300.107 1033.28 298.357 1028.86 297.159C1028.43 297.034 1027.97 297.117 1027.62 297.388C1027.26 297.654 1027.04 298.065 1027.03 298.508C1026.6 305.862 1024.11 312.951 1019.86 318.972C1019.55 319.415 1019.52 319.988 1019.76 320.467C1020 320.951 1020.49 321.258 1021.03 321.269C1021.18 321.279 1021.34 321.264 1021.48 321.227L1021.48 321.227Z" fill="#DB3069"/>
<path d="M874.228 202.321C849.348 202.206 824.061 201.446 799.561 200.711C774.515 199.961 748.613 199.18 723.181 199.092L688.067 198.961C687.275 198.961 686.624 199.592 686.608 200.383L686.468 205.003C686.4 207.513 686.316 210.013 686.275 212.498C686.259 213.295 686.889 213.961 687.691 213.977C700.671 214.316 713.837 214.305 726.629 214.31C732.577 214.31 738.473 214.31 744.383 214.342C762.269 214.441 780.509 214.925 798.143 215.42C817.893 215.967 838.185 216.524 858.341 216.524C863.289 216.524 868.226 216.487 873.153 216.415V216.409C873.872 216.404 874.476 215.868 874.569 215.154C875.106 211.362 875.481 207.571 875.674 203.842V203.847C875.689 203.451 875.543 203.06 875.273 202.774C874.997 202.487 874.622 202.326 874.226 202.321L874.228 202.321Z" fill="#DB3069"/>
<path d="M914.775 251.867C915.561 251.867 916.207 251.242 916.233 250.456C916.556 239.555 916.509 228.483 916.462 217.789C916.462 213.044 916.42 208.305 916.462 203.565C916.467 202.805 915.879 202.164 915.118 202.107C905.603 201.508 896.066 201.398 886.534 201.779L883.987 201.836V201.841C883.222 201.852 882.597 202.461 882.566 203.227C882.295 209.628 881.586 215.997 880.446 222.3C880.357 222.81 880.54 223.326 880.925 223.67C889.045 231.165 895.285 240.467 899.138 250.82C899.425 251.393 900.019 251.753 900.659 251.747C905.326 251.747 910.086 251.81 914.774 251.878L914.775 251.867Z" fill="#DB3069"/>
<path d="M874.988 155.681C874.977 154.978 874.467 154.384 873.774 154.264C858.613 152.337 843.285 152.077 828.066 153.488C820.572 153.905 813.482 154.295 806.536 154.311C795.473 154.358 784.405 154.415 773.328 154.478C758.869 154.556 744.41 154.618 729.953 154.67C714.057 154.67 697.87 154.28 682.218 153.879H682.213C650.421 152.467 618.573 152.821 586.817 154.941C586.343 154.983 585.921 155.248 585.687 155.655C580.26 164.92 576.473 180.425 580.072 190.873C580.255 191.405 580.729 191.785 581.286 191.847C598.275 193.373 615.349 193.644 632.374 192.655C640.306 192.394 648.51 192.118 656.551 192.118C663.713 192.118 670.879 192.102 678.067 192.071C694.937 192.019 712.374 191.962 729.401 192.217C749.707 192.524 770.094 193.108 789.817 193.675C817.005 194.457 845.119 195.264 874.322 195.342L874.791 195.212C875.463 195.076 875.952 194.483 875.957 193.795C876.015 186.264 875.723 178.629 875.442 171.227C875.265 166.035 875.067 160.852 874.989 155.681L874.988 155.681Z" fill="#DB3069"/>
</svg>
